<svg width="20" height="20" viewBox="0 0 20 20" fill="none" xmlns="http://www.w3.org/2000/svg">
<path d="M12.2501 15.5999C12.2501 16.2364 12.0131 16.8469 11.5911 17.297C11.1692 17.7471 10.5969 17.9999 10.0002 17.9999C9.40343 17.9999 8.83115 17.7471 8.4092 17.297C7.98725 16.8469 7.7502 16.2364 7.7502 15.5999M10.5409 4.40232L9.44142 4.39992C6.93346 4.39352 4.75625 6.56712 4.739 9.19992V12.2319C4.739 12.8639 4.664 13.4807 4.34076 14.0063L4.12551 14.3567C3.79777 14.8879 4.15026 15.5999 4.739 15.5999H15.2613C15.8501 15.5999 16.2018 14.8879 15.8748 14.3567L15.6596 14.0063C15.3371 13.4807 15.2613 12.8631 15.2613 12.2311V9.20072C15.2313 6.56712 13.0489 4.40872 10.5409 4.40232Z" stroke="#515151" stroke-width="1.5" stroke-linecap="round" stroke-linejoin="round"/>
<path d="M10.0002 2C10.398 2 10.7796 2.16857 11.0609 2.46863C11.3422 2.76869 11.5002 3.17565 11.5002 3.6V4.4H8.50024V3.6C8.50024 3.17565 8.65828 2.76869 8.93958 2.46863C9.22088 2.16857 9.6024 2 10.0002 2Z" stroke="#515151" stroke-width="1.5" stroke-linecap="round" stroke-linejoin="round"/>
</svg>
