<svg width="30" height="31" viewBox="0 0 30 31" fill="none" xmlns="http://www.w3.org/2000/svg">
<path d="M14.9993 20.5537H15.0093M14.9993 13.0537V16.8037M13.2181 7.07492L4.39559 21.8037C4.21381 22.1187 4.11766 22.4759 4.11671 22.8396C4.11575 23.2033 4.21002 23.5609 4.39013 23.8769C4.57025 24.1929 4.82995 24.4563 5.1434 24.6408C5.45685 24.8253 5.81313 24.9245 6.17684 24.9287H23.8218C24.1857 24.9249 24.5422 24.8259 24.8559 24.6415C25.1695 24.4571 25.4294 24.1937 25.6096 23.8775C25.7898 23.5614 25.884 23.2036 25.8829 22.8397C25.8817 22.4759 25.7853 22.1187 25.6031 21.8037L16.7818 7.07492C16.5963 6.76858 16.3349 6.51527 16.0229 6.33946C15.7108 6.16365 15.3587 6.07129 15.0006 6.07129C14.6424 6.07129 14.2903 6.16365 13.9783 6.33946C13.6663 6.51527 13.4049 6.76858 13.2193 7.07492" stroke="#111111" stroke-width="1.875" stroke-miterlimit="10" stroke-linecap="round" stroke-linejoin="round"/>
</svg>
