<svg width="32" height="32" viewBox="0 0 32 32" fill="none" xmlns="http://www.w3.org/2000/svg">
<circle cx="16.5" cy="17.9197" r="11.5" fill="#E7E7E7"/>
<circle cx="20.3859" cy="17.7254" r="1.28948" fill="black"/>
<circle cx="13.3378" cy="17.7254" r="1.28948" fill="black"/>
<path d="M16.8434 17.9197C15.7469 17.9197 15.0159 18.3521 15.0159 18.7375C15.0159 19.3697 15.7395 20.1455 16.9129 20.1455C18.0863 20.1455 18.6949 19.2425 18.6949 18.7375C18.6949 18.403 17.9399 17.9197 16.8434 17.9197Z" fill="#F57F00"/>
<ellipse cx="11.8633" cy="20.1453" rx="1.29839" ry="1.1129" fill="#F57F00" fill-opacity="0.15"/>
<ellipse cx="21.8792" cy="20.1453" rx="1.29839" ry="1.1129" fill="#F57F00" fill-opacity="0.15"/>
<path d="M14.3504 2.55673C12.4951 3.06616 13.1104 6.21722 14.1749 7.58485L19.4913 8.53382C20.3192 7.16629 21.0638 4.87788 19.4404 3.39412C18.413 2.45504 16.977 3.48226 17.0127 4.04489C16.7212 2.96489 15.5355 2.23132 14.3504 2.55673Z" fill="#E80000"/>
</svg>
