<svg width="32" height="32" viewBox="0 0 32 32" fill="none" xmlns="http://www.w3.org/2000/svg">
<circle cx="16.5" cy="17.9192" r="11.5" fill="#FEDD41"/>
<circle cx="20.3859" cy="17.7249" r="1.28948" fill="black"/>
<circle cx="13.3378" cy="17.7249" r="1.28948" fill="black"/>
<path d="M16.8434 17.9192C15.7469 17.9192 15.0159 18.3517 15.0159 18.737C15.0159 19.3692 15.7395 20.145 16.9129 20.145C18.0863 20.145 18.6949 19.242 18.6949 18.737C18.6949 18.4025 17.9399 17.9192 16.8434 17.9192Z" fill="#F57F00"/>
<ellipse cx="11.8633" cy="20.1453" rx="1.29839" ry="1.1129" fill="#F57F00" fill-opacity="0.3"/>
<ellipse cx="21.8792" cy="20.1453" rx="1.29839" ry="1.1129" fill="#F57F00" fill-opacity="0.3"/>
<path d="M14.3504 2.55667C12.4951 3.0661 13.1104 6.21716 14.1749 7.58479L19.4913 8.53375C20.3192 7.16623 21.0638 4.87782 19.4404 3.39405C18.413 2.45498 16.977 3.4822 17.0127 4.04483C16.7212 2.96483 15.5355 2.23126 14.3504 2.55667Z" fill="#FEDD41"/>
</svg>
