<svg width="38" height="48" viewBox="0 0 38 48" fill="none" xmlns="http://www.w3.org/2000/svg">
<circle cx="19" cy="28.2898" r="19" fill="#E6E6E6"/>
<circle cx="25.4207" cy="27.9691" r="2.13045" fill="#515151"/>
<circle cx="13.7755" cy="27.9691" r="2.13045" fill="#515151"/>
<path d="M19.567 28.2898C17.7553 28.2898 16.5476 29.0043 16.5476 29.641C16.5476 30.6854 17.7431 31.9672 19.6818 31.9672C21.6204 31.9672 22.626 30.4753 22.626 29.641C22.626 29.0884 21.3786 28.2898 19.567 28.2898Z" fill="#A8A8A8"/>
<ellipse cx="11.3393" cy="31.9679" rx="2.14516" ry="1.83871" fill="#C4C4C4"/>
<ellipse cx="27.8869" cy="31.9679" rx="2.14516" ry="1.83871" fill="#C4C4C4"/>
<path d="M15.4486 2.9086C12.3834 3.75026 13.4 8.95636 15.1586 11.2159L23.9423 12.7838C25.3102 10.5244 26.5403 6.74354 23.8582 4.2921C22.1607 2.74059 19.7883 4.43773 19.8472 5.3673C19.3657 3.58295 17.4066 2.37097 15.4486 2.9086Z" fill="#E6E6E6"/>
</svg>
