<svg width="21" height="20" viewBox="0 0 21 20" fill="none" xmlns="http://www.w3.org/2000/svg">
<path d="M14.9554 12.7368H13.3483C13.2534 12.7369 13.1597 12.7584 13.0743 12.7997C12.9889 12.841 12.9139 12.9011 12.855 12.9755L10.9932 15.2988C10.9335 15.3733 10.8579 15.4335 10.7718 15.4749C10.6858 15.5163 10.5915 15.5377 10.4961 15.5377C10.4006 15.5377 10.3063 15.5163 10.2203 15.4749C10.1342 15.4335 10.0586 15.3733 9.99894 15.2988L8.13715 12.9755C8.07813 12.901 8.00305 12.8409 7.91752 12.7996C7.83198 12.7582 7.73821 12.7368 7.64321 12.7368H6.0443C4.98642 12.7368 4.13477 11.8851 4.13477 10.8273V6.37169C4.13477 5.31381 4.98642 4.46216 6.0443 4.46216H14.9554C16.014 4.46216 16.865 5.31381 16.865 6.37169V10.8273C16.865 11.8851 16.014 12.7368 14.9554 12.7368Z" stroke="#A8A8A8" stroke-width="1.5" stroke-miterlimit="10" stroke-linejoin="round"/>
</svg>
