<svg width="20" height="21" viewBox="0 0 20 21" fill="none" xmlns="http://www.w3.org/2000/svg">
<path d="M17.2285 3.25391H2.77154C2.42298 3.25391 2.08869 3.39237 1.84221 3.63885C1.59574 3.88532 1.45728 4.21961 1.45728 4.56817V16.3966C1.45728 16.7451 1.59574 17.0794 1.84221 17.3259C2.08869 17.5724 2.42298 17.7108 2.77154 17.7108H3.87142C3.99578 17.7109 4.11761 17.6756 4.22274 17.6092C4.32787 17.5427 4.41198 17.4478 4.4653 17.3354C4.78485 16.6608 5.28935 16.0907 5.92015 15.6915C6.55094 15.2923 7.2821 15.0804 8.0286 15.0804C8.7751 15.0804 9.50626 15.2923 10.1371 15.6915C10.7679 16.0907 11.2724 16.6608 11.5919 17.3354C11.6452 17.4478 11.7293 17.5427 11.8345 17.6092C11.9396 17.6756 12.0614 17.7109 12.1858 17.7108H17.2285C17.577 17.7108 17.9113 17.5724 18.1578 17.3259C18.4043 17.0794 18.5427 16.7451 18.5427 16.3966V4.56817C18.5427 4.21961 18.4043 3.88532 18.1578 3.63885C17.9113 3.39237 17.577 3.25391 17.2285 3.25391ZM6.0572 11.7966C6.0572 11.4067 6.17282 11.0256 6.38944 10.7014C6.60606 10.3772 6.91395 10.1245 7.27418 9.9753C7.63441 9.82609 8.03079 9.78705 8.4132 9.86311C8.79562 9.93918 9.14689 10.1269 9.42259 10.4026C9.6983 10.6783 9.88605 11.0296 9.96212 11.412C10.0382 11.7944 9.99915 12.1908 9.84994 12.5511C9.70073 12.9113 9.44805 13.2192 9.12385 13.4358C8.79966 13.6524 8.41851 13.768 8.0286 13.768C7.50575 13.768 7.00432 13.5603 6.63461 13.1906C6.2649 12.8209 6.0572 12.3195 6.0572 11.7966ZM17.2285 16.3966H12.5817C12.0329 15.4531 11.2057 14.7026 10.2136 14.2477C10.711 13.8048 11.0621 13.2212 11.2203 12.5742C11.3784 11.9272 11.3363 11.2474 11.0993 10.6249C10.8623 10.0024 10.4418 9.46666 9.89337 9.08864C9.34498 8.71062 8.69466 8.5082 8.0286 8.5082C7.36255 8.5082 6.71222 8.71062 6.16383 9.08864C5.61544 9.46666 5.19489 10.0024 4.95792 10.6249C4.72095 11.2474 4.67876 11.9272 4.83694 12.5742C4.99512 13.2212 5.3462 13.8048 5.84364 14.2477C4.85148 14.7026 4.0243 15.4531 3.47549 16.3966H2.77154V4.56817H17.2285V16.3966ZM4.08581 7.85384V6.53957C4.08581 6.36529 4.15504 6.19814 4.27828 6.07491C4.40151 5.95167 4.56866 5.88244 4.74294 5.88244H15.2571C15.4313 5.88244 15.5985 5.95167 15.7217 6.07491C15.845 6.19814 15.9142 6.36529 15.9142 6.53957V14.4252C15.9142 14.5994 15.845 14.7666 15.7217 14.8898C15.5985 15.0131 15.4313 15.0823 15.2571 15.0823H13.9428C13.7685 15.0823 13.6014 15.0131 13.4781 14.8898C13.3549 14.7666 13.2857 14.5994 13.2857 14.4252C13.2857 14.2509 13.3549 14.0837 13.4781 13.9605C13.6014 13.8373 13.7685 13.768 13.9428 13.768H14.5999V7.1967H5.40007V7.85384C5.40007 8.02812 5.33084 8.19526 5.2076 8.3185C5.08437 8.44173 4.91722 8.51097 4.74294 8.51097C4.56866 8.51097 4.40151 8.44173 4.27828 8.3185C4.15504 8.19526 4.08581 8.02812 4.08581 7.85384Z" fill="#A8A8A8"/>
</svg>
