<svg width="56" height="56" viewBox="0 0 56 56" fill="none" xmlns="http://www.w3.org/2000/svg">
<rect width="56" height="56" rx="12.6126" fill="#6CA6ED"/>
<g clip-path="url(#clip0_642_2052)">
<path d="M8.26402 32.3918L11.1998 29.7074C11.7098 29.2411 11.7673 28.4651 11.4204 27.8675C7.56324 21.2245 13.3849 12.4148 20.496 12.4141C27.7468 12.4133 33.0809 16.3312 32.0248 26.319C31.1317 34.7654 17.8899 35.4931 8.97535 34.6231C7.85762 34.5141 7.43522 33.1496 8.26402 32.3918Z" fill="#FFF9DB" stroke="#FEED8A" stroke-width="1.75449"/>
<circle cx="24.6261" cy="19.5612" r="1.19302" fill="#515151"/>
<circle cx="18.1049" cy="19.5612" r="1.19302" fill="#515151"/>
<path d="M21.3483 19.7407C20.3338 19.7407 19.6575 20.1408 19.6575 20.4974C19.6575 21.0822 20.3269 21.8 21.4126 21.8C22.4982 21.8 23.0613 20.9646 23.0613 20.4974C23.0613 20.1879 22.3628 19.7407 21.3483 19.7407Z" fill="#FF9C00"/>
<ellipse cx="16.7408" cy="21.8006" rx="1.20126" ry="1.02965" fill="#F57F00" fill-opacity="0.3"/>
<ellipse cx="26.0072" cy="21.8006" rx="1.20126" ry="1.02965" fill="#F57F00" fill-opacity="0.3"/>
<path d="M48.8026 41.6896L45.8668 39.0053C45.3569 38.539 45.2993 37.7629 45.6463 37.1653C49.5034 30.5223 43.6818 21.7127 36.5706 21.7119C29.3199 21.7111 23.9858 25.6291 25.0418 35.6169C25.9349 44.0633 39.1767 44.791 48.0913 43.921C49.209 43.8119 49.6314 42.4475 48.8026 41.6896Z" fill="#FEED8A" stroke="#E5D57C" stroke-width="1.75449"/>
<circle cx="38.8009" cy="29.693" r="1.19302" fill="#515151"/>
<circle cx="32.2797" cy="29.693" r="1.19302" fill="#515151"/>
<path d="M35.5228 29.8726C34.5083 29.8726 33.832 30.2727 33.832 30.6292C33.832 31.2141 34.5015 31.9319 35.5871 31.9319C36.6727 31.9319 37.2359 31.0964 37.2359 30.6292C37.2359 30.3197 36.5373 29.8726 35.5228 29.8726Z" fill="#F57F00"/>
<ellipse cx="30.9156" cy="31.9325" rx="1.20126" ry="1.02965" fill="#F57F00" fill-opacity="0.3"/>
<ellipse cx="40.182" cy="31.9325" rx="1.20126" ry="1.02965" fill="#F57F00" fill-opacity="0.3"/>
</g>
<defs>
<clipPath id="clip0_642_2052">
<rect width="52" height="35" fill="white" transform="translate(2 10.5)"/>
</clipPath>
</defs>
</svg>
