<svg width="20" height="21" viewBox="0 0 20 21" fill="none" xmlns="http://www.w3.org/2000/svg">
<path d="M8.97671 2.72254C9.25008 2.50987 9.58291 2.38764 9.92894 2.37286C10.275 2.35807 10.617 2.45146 10.9075 2.64004L11.0234 2.72337L18.01 8.1567C18.6109 8.6242 18.3184 9.5667 17.5942 9.6442L17.4975 9.6492H16.6667V16.3159C16.6668 16.7364 16.508 17.1413 16.2221 17.4497C15.9362 17.758 15.5443 17.9468 15.125 17.9784L15 17.9825H5.00004C4.5797 17.9825 4.17492 17.8236 3.86678 17.5377C3.55864 17.2518 3.3699 16.86 3.33837 16.4409L3.33337 16.3159V9.6492H2.50254C1.74171 9.6492 1.39254 8.72587 1.91671 8.22004L1.99004 8.1567L8.97671 2.72254ZM10 4.03837L4.68754 8.17004C4.87837 8.3242 5.00004 8.56004 5.00004 8.8242V16.3159H7.50004V12.1492C7.50004 11.4862 7.76343 10.8503 8.23227 10.3814C8.70111 9.91259 9.337 9.6492 10 9.6492C10.6631 9.6492 11.299 9.91259 11.7678 10.3814C12.2366 10.8503 12.5 11.4862 12.5 12.1492V16.3159H15V8.8242C15 8.56004 15.1217 8.3242 15.3125 8.17004L10 4.03837ZM10 11.3159C9.77903 11.3159 9.56706 11.4037 9.41078 11.5599C9.2545 11.7162 9.16671 11.9282 9.16671 12.1492V16.3159H10.8334V12.1492C10.8334 11.9282 10.7456 11.7162 10.5893 11.5599C10.433 11.4037 10.2211 11.3159 10 11.3159Z" fill="#A8A8A8"/>
</svg>
