<svg width="20" height="20" viewBox="0 0 20 20" fill="none" xmlns="http://www.w3.org/2000/svg">
<path d="M8.07811 8.43511C8.08488 8.1777 8.14267 7.9242 8.24813 7.68928C8.35359 7.45437 8.50463 7.24273 8.69248 7.06661C8.88033 6.8905 9.10127 6.75342 9.34249 6.66331C9.58371 6.57321 9.84041 6.53187 10.0977 6.5417C10.355 6.55153 10.6078 6.61233 10.8415 6.72057C11.0751 6.82882 11.285 6.98235 11.4588 7.17229C11.6327 7.36222 11.7671 7.58477 11.8544 7.82704C11.9416 8.06932 11.9799 8.32649 11.967 8.58367C11.9633 8.83639 11.9092 9.08583 11.8079 9.31736C11.7065 9.54888 11.5599 9.75783 11.3766 9.93192C11.1934 10.106 10.9773 10.2418 10.7409 10.3312C10.5045 10.4206 10.2526 10.4619 10 10.4527V11.5556M9.99222 13.8951H10M17 10C17 10.9193 16.8189 11.8295 16.4672 12.6788C16.1154 13.5281 15.5998 14.2997 14.9497 14.9497C14.2997 15.5998 13.5281 16.1154 12.6788 16.4672C11.8295 16.8189 10.9193 17 10 17C9.08075 17 8.1705 16.8189 7.32122 16.4672C6.47194 16.1154 5.70026 15.5998 5.05025 14.9497C4.40024 14.2997 3.88463 13.5281 3.53284 12.6788C3.18106 11.8295 3 10.9193 3 10C3 8.14348 3.7375 6.36301 5.05025 5.05025C6.36301 3.7375 8.14348 3 10 3C11.8565 3 13.637 3.7375 14.9497 5.05025C16.2625 6.36301 17 8.14348 17 10Z" stroke="#515151" stroke-width="1.5" stroke-linecap="round" stroke-linejoin="round"/>
</svg>
