<svg width="24" height="24" viewBox="0 0 24 24" fill="none" xmlns="http://www.w3.org/2000/svg">
<path d="M11.75 4.45947C16.3064 4.45947 20 7.33833 20 10.8905C20 14.442 16.3064 17.3208 11.75 17.3208C11.2963 17.3211 10.8431 17.2922 10.3931 17.2344L6.92964 19.4996C6.536 19.7078 6.39693 19.685 6.55879 19.1751L7.25964 16.2853C4.99679 15.1381 3.5 13.1503 3.5 10.8905C3.5 7.33912 7.19364 4.45947 11.75 4.45947ZM16.3912 10.7923L17.5462 9.67347C17.6129 9.60426 17.65 9.51188 17.6499 9.41579C17.6498 9.31971 17.6124 9.22742 17.5456 9.15837C17.4788 9.08931 17.3878 9.04888 17.2917 9.0456C17.1957 9.04232 17.1022 9.07643 17.0308 9.14076L15.5159 10.6069V9.39533C15.5159 9.29697 15.4769 9.20264 15.4073 9.13309C15.3378 9.06355 15.2434 9.02447 15.1451 9.02447C15.0467 9.02447 14.9524 9.06355 14.8828 9.13309C14.8133 9.20264 14.7742 9.29697 14.7742 9.39533V11.4044C14.7603 11.4617 14.7603 11.5215 14.7742 11.5788V12.7095C14.7742 12.8078 14.8133 12.9022 14.8828 12.9717C14.9524 13.0413 15.0467 13.0803 15.1451 13.0803C15.2434 13.0803 15.3378 13.0413 15.4073 12.9717C15.4769 12.9022 15.5159 12.8078 15.5159 12.7095V11.6385L15.8514 11.314L16.9734 12.9114C17.0014 12.9513 17.037 12.9853 17.0782 13.0114C17.1193 13.0375 17.1652 13.0553 17.2132 13.0637C17.2612 13.072 17.3104 13.0709 17.358 13.0603C17.4055 13.0497 17.4505 13.0298 17.4904 13.0018C17.5303 12.9737 17.5643 12.9382 17.5904 12.897C17.6165 12.8559 17.6343 12.81 17.6427 12.762C17.6511 12.714 17.6499 12.6648 17.6393 12.6172C17.6287 12.5696 17.6088 12.5246 17.5808 12.4848L16.3912 10.7923ZM14.0671 12.304H12.9199V9.40712C12.9155 9.31181 12.8746 9.22187 12.8056 9.15598C12.7366 9.09009 12.6449 9.05332 12.5495 9.05332C12.4541 9.05332 12.3623 9.09009 12.2933 9.15598C12.2243 9.22187 12.1834 9.31181 12.179 9.40712V12.6749C12.179 12.8792 12.344 13.0458 12.5491 13.0458H14.0671C14.1654 13.0458 14.2598 13.0067 14.3293 12.9371C14.3989 12.8676 14.4379 12.7733 14.4379 12.6749C14.4379 12.5765 14.3989 12.4822 14.3293 12.4127C14.2598 12.3431 14.1654 12.304 14.0671 12.304ZM9.46514 11.446L10.012 10.1048L10.5133 11.446H9.46514ZM11.4475 11.8295L11.4491 11.8169C11.4489 11.7235 11.4132 11.6336 11.3493 11.5655L10.5274 9.36547C10.493 9.26063 10.4274 9.1688 10.3393 9.10225C10.2513 9.0357 10.145 8.9976 10.0348 8.99304C9.92372 8.99256 9.81513 9.0259 9.72348 9.08864C9.63183 9.15138 9.56145 9.24054 9.52171 9.34426L8.21664 12.546C8.19822 12.5911 8.18887 12.6394 8.18911 12.6881C8.18935 12.7368 8.19918 12.785 8.21804 12.8299C8.2369 12.8748 8.26442 12.9156 8.29903 12.9498C8.33364 12.9841 8.37466 13.0112 8.41975 13.0297C8.46484 13.0481 8.51312 13.0574 8.56182 13.0572C8.61053 13.0569 8.65871 13.0471 8.70362 13.0283C8.74853 13.0094 8.78928 12.9819 8.82355 12.9473C8.85782 12.9127 8.88494 12.8716 8.90336 12.8265L9.16264 12.1878H10.7891L11.024 12.8163C11.04 12.8633 11.0652 12.9066 11.0982 12.9437C11.1312 12.9807 11.1713 13.0108 11.2162 13.032C11.261 13.0533 11.3097 13.0654 11.3592 13.0675C11.4088 13.0696 11.4583 13.0618 11.5048 13.0444C11.5513 13.027 11.5938 13.0005 11.6299 12.9664C11.666 12.9324 11.6948 12.8914 11.7148 12.8459C11.7347 12.8005 11.7453 12.7515 11.7459 12.7019C11.7466 12.6522 11.7373 12.603 11.7186 12.557L11.4475 11.8295ZM8.83736 9.41104C8.83736 9.31282 8.79839 9.21861 8.72901 9.14909C8.65963 9.07956 8.56551 9.0404 8.46729 9.04019H5.91764C5.81929 9.04019 5.72496 9.07926 5.65541 9.14881C5.58586 9.21836 5.54679 9.31269 5.54679 9.41104C5.54679 9.5094 5.58586 9.60373 5.65541 9.67328C5.72496 9.74283 5.81929 9.7819 5.91764 9.7819H6.82907V12.7173C6.82907 12.8157 6.86814 12.91 6.93769 12.9796C7.00724 13.0491 7.10157 13.0882 7.19993 13.0882C7.29829 13.0882 7.39261 13.0491 7.46216 12.9796C7.53171 12.91 7.57079 12.8157 7.57079 12.7173V9.7819H8.4665C8.67157 9.7819 8.83736 9.61533 8.83736 9.41104Z" fill="black"/>
<ellipse cx="11.9857" cy="10.5881" rx="7.54286" ry="4.24286" fill="black"/>
</svg>
