<svg width="24" height="25" viewBox="0 0 24 25" fill="none" xmlns="http://www.w3.org/2000/svg">
<path d="M8.368 5.29005L5.632 4.37705C5.33133 4.27691 5.01118 4.24964 4.69791 4.29751C4.38464 4.34538 4.08723 4.467 3.83019 4.65236C3.57315 4.83772 3.36383 5.08151 3.21949 5.36363C3.07516 5.64576 2.99992 5.95814 3 6.27505V18.058C2.9999 18.478 3.13198 18.8873 3.37752 19.2279C3.62305 19.5686 3.96959 19.8233 4.368 19.956L8.368 21.289C8.77825 21.4257 9.22175 21.4257 9.632 21.289L14.368 19.711C14.7786 19.5742 15.2224 19.5742 15.633 19.711L18.368 20.623C18.6687 20.7232 18.9888 20.7504 19.3021 20.7026C19.6154 20.6547 19.9128 20.5331 20.1698 20.3477C20.4269 20.1624 20.6362 19.9186 20.7805 19.6365C20.9248 19.3543 21.0001 19.042 21 18.725V6.94205C21.0002 6.52224 20.8682 6.11302 20.6229 5.77237C20.3775 5.43172 20.0312 5.17692 19.633 5.04405L15.633 3.71105C15.2224 3.57418 14.7786 3.57418 14.368 3.71105L9.631 5.28905C9.22074 5.42569 8.77725 5.42569 8.367 5.28905" stroke="#111111" stroke-width="1.5" stroke-linecap="round" stroke-linejoin="round"/>
<path d="M9 5.5V21.5M15 3.5V19.5" stroke="#111111" stroke-width="1.5" stroke-linejoin="round"/>
</svg>
