<svg width="24" height="24" viewBox="0 0 24 24" fill="none" xmlns="http://www.w3.org/2000/svg">
<path d="M7.99947 19H2.99947C2.82908 18.9999 2.66153 18.9563 2.51274 18.8733C2.36394 18.7902 2.23883 18.6706 2.14927 18.5256C2.05971 18.3806 2.00868 18.2152 2.00101 18.045C1.99335 17.8748 2.0293 17.7054 2.10547 17.553L3.99947 13.763V11C3.99947 8.87827 4.84232 6.84344 6.34261 5.34315C7.8429 3.84285 9.87773 3 11.9995 3C14.1212 3 16.156 3.84285 17.6563 5.34315C19.1566 6.84344 19.9995 8.87827 19.9995 11V13.764L21.8935 17.553C21.9696 17.7054 22.0056 17.8748 21.9979 18.045C21.9903 18.2152 21.9392 18.3806 21.8497 18.5256C21.7601 18.6706 21.635 18.7902 21.4862 18.8733C21.3374 18.9563 21.1699 18.9999 20.9995 19H15.9995M7.99947 19H15.9995M7.99947 19C7.99947 20.0609 8.42089 21.0783 9.17104 21.8284C9.92118 22.5786 10.9386 23 11.9995 23C13.0603 23 14.0777 22.5786 14.8279 21.8284C15.578 21.0783 15.9995 20.0609 15.9995 19" stroke="black" stroke-width="1.5" stroke-linecap="round" stroke-linejoin="round"/>
</svg>
