<svg width="20" height="20" viewBox="0 0 20 20" fill="none" xmlns="http://www.w3.org/2000/svg">
<path d="M10.4028 4.09498L13.7361 7.42831M14.9869 16.1783C14.5449 16.1783 14.121 16.0027 13.8084 15.6902C13.4958 15.3776 13.3203 14.9537 13.3203 14.5116C13.3203 14.0696 13.4958 13.6457 13.8084 13.3331C14.121 13.0206 14.5449 12.845 14.9869 12.845M14.9869 16.1783C15.4289 16.1783 15.8529 16.0027 16.1654 15.6902C16.478 15.3776 16.6536 14.9537 16.6536 14.5116C16.6536 14.0696 16.478 13.6457 16.1654 13.3331C15.8529 13.0206 15.4289 12.845 14.9869 12.845M14.9869 16.1783V17.4283M14.9869 12.845V11.595M17.5128 13.0533L16.4303 13.6783M13.5444 15.345L12.4611 15.97M12.4611 13.0533L13.5444 13.6783M16.4303 15.345L17.5136 15.97M2.48608 15.345H5.81942L14.5694 6.59498C14.7883 6.37611 14.9619 6.11627 15.0804 5.83031C15.1988 5.54434 15.2598 5.23784 15.2598 4.92831C15.2598 4.61878 15.1988 4.31229 15.0804 4.02632C14.9619 3.74035 14.7883 3.48052 14.5694 3.26165C14.3505 3.04278 14.0907 2.86916 13.8047 2.75071C13.5188 2.63226 13.2123 2.57129 12.9028 2.57129C12.5932 2.57129 12.2867 2.63226 12.0008 2.75071C11.7148 2.86916 11.455 3.04278 11.2361 3.26165L2.48608 12.0116V15.345Z" stroke="#515151" stroke-width="1.5" stroke-linecap="round" stroke-linejoin="round"/>
</svg>
