<svg width="21" height="21" viewBox="0 0 21 21" fill="none" xmlns="http://www.w3.org/2000/svg">
<path d="M10.9167 4.53468L14.25 7.86801M13 14.9513H18M15.5 12.4513V17.4513M3 15.7847H6.33333L15.0833 7.03468C15.3022 6.81581 15.4758 6.55597 15.5943 6.27C15.7127 5.98403 15.7737 5.67754 15.7737 5.36801C15.7737 5.05848 15.7127 4.75198 15.5943 4.46602C15.4758 4.18005 15.3022 3.92021 15.0833 3.70134C14.8645 3.48247 14.6046 3.30886 14.3187 3.1904C14.0327 3.07195 13.7262 3.01099 13.4167 3.01099C13.1071 3.01099 12.8006 3.07195 12.5147 3.1904C12.2287 3.30886 11.9689 3.48247 11.75 3.70134L3 12.4513V15.7847Z" stroke="#111111" stroke-width="1.5" stroke-linecap="round" stroke-linejoin="round"/>
</svg>
