<svg width="20" height="20" viewBox="0 0 20 20" fill="none" xmlns="http://www.w3.org/2000/svg">
<path fill-rule="evenodd" clip-rule="evenodd" d="M16.7885 3C17.3654 3 17.833 3.46762 17.833 4.04447V14.141C17.833 14.7178 17.3654 15.1855 16.7885 15.1855H14.5255C13.9487 15.1855 13.4811 15.6531 13.4811 16.2299V16.7331C13.4811 17.5637 12.5584 18.062 11.8638 17.6065L8.43253 15.3565C8.26235 15.2449 8.06329 15.1855 7.85979 15.1855H3.21048C2.63364 15.1855 2.16602 14.7178 2.16602 14.141V4.04447C2.16602 3.46762 2.63364 3 3.21048 3H16.7885ZM10.0377 11.2034C9.75886 11.2034 9.52767 11.2944 9.34407 11.4763C9.16047 11.6581 9.06867 11.8851 9.06867 12.1571C9.06867 12.4427 9.15877 12.6773 9.33897 12.8609C9.51917 13.0445 9.75206 13.1363 10.0377 13.1363C10.3165 13.1363 10.5468 13.0445 10.7287 12.8609C10.9106 12.6773 11.0016 12.4478 11.0015 12.1724C11.0015 11.8936 10.9106 11.6624 10.7287 11.4788C10.5468 11.2952 10.3164 11.2034 10.0377 11.2034ZM10.4151 5.6547C9.82 5.6547 9.226 5.77616 8.63304 6.01909C8.3504 6.13489 8.23211 6.46212 8.34577 6.74563C8.47994 7.08031 8.87684 7.21368 9.21013 7.07608C9.5701 6.92746 9.89184 6.85316 10.1754 6.85318C10.4406 6.85318 10.6505 6.91692 10.8052 7.04441C10.9599 7.17189 11.0372 7.34445 11.0372 7.56207C11.0372 7.73547 10.982 7.88677 10.8715 8.01597C10.7886 8.11285 10.6316 8.24609 10.4006 8.41568L9.85345 8.80735C9.80657 8.84202 9.76022 8.8774 9.7144 8.91347L9.61946 8.99262C9.53447 9.06908 9.46647 9.15662 9.41547 9.25525C9.32707 9.42522 9.28287 9.72612 9.28287 10.1579C9.28287 10.4058 9.4838 10.6067 9.73166 10.6067H10.5783C10.6937 10.6067 10.7873 10.5131 10.7873 10.3976C10.7873 10.0882 10.8264 9.87319 10.9046 9.75247C10.9828 9.63179 11.1919 9.45755 11.5319 9.22975L11.6926 9.1198C12.0525 8.86564 12.3084 8.62774 12.4601 8.40609C12.6335 8.15281 12.7202 7.84767 12.7202 7.49067C12.7202 6.96365 12.5417 6.53526 12.1847 6.20549C11.7801 5.8383 11.1902 5.6547 10.4151 5.6547Z" fill="#515151"/>
</svg>
