<svg width="20" height="20" viewBox="0 0 20 20" fill="none" xmlns="http://www.w3.org/2000/svg">
<path d="M17.4792 9.44165C17.3615 7.86639 16.7494 6.36851 15.7302 5.16161C14.711 3.95471 13.3368 3.10042 11.8035 2.72056C10.2702 2.34071 8.65612 2.45468 7.19141 3.04623C5.7267 3.63778 4.48616 4.67669 3.6467 6.01483C2.80724 7.35297 2.41171 8.922 2.51654 10.4982C2.62136 12.0743 3.22117 13.5772 4.23044 14.7924C5.23971 16.0076 6.60689 16.8731 8.13704 17.2654C9.66719 17.6578 11.2822 17.557 12.7517 16.9775M2.99999 7.49998H17M2.99999 12.5H11.25" stroke="#515151" stroke-width="1.5" stroke-linecap="round" stroke-linejoin="round"/>
<path d="M9.58322 2.5C8.17934 4.74968 7.43506 7.34822 7.43506 10C7.43506 12.6518 8.17934 15.2503 9.58322 17.5M10.4166 2.5C11.8982 4.8743 12.6435 7.63427 12.5582 10.4317M11.6782 14.9342C11.3453 15.8298 10.9226 16.6895 10.4166 17.5M15.8332 18.3333V18.3417M15.8332 15.8333C16.2068 15.8321 16.5692 15.7057 16.8624 15.4741C17.1556 15.2426 17.3626 14.9194 17.4503 14.5563C17.5381 14.1931 17.5015 13.8111 17.3464 13.4712C17.1913 13.1313 16.9267 12.8533 16.5949 12.6817C16.2634 12.5118 15.8841 12.4592 15.5189 12.5323C15.1536 12.6053 14.8239 12.7999 14.5832 13.0842" stroke="#515151" stroke-width="1.5" stroke-linecap="round" stroke-linejoin="round"/>
</svg>
