<svg width="17" height="18" viewBox="0 0 17 18" fill="none" xmlns="http://www.w3.org/2000/svg">
<rect x="0.5" y="1.00488" width="15.9907" height="15.9907" rx="7.99536" fill="#EFF6FF"/>
<rect x="0.5" y="1.00488" width="15.9907" height="15.9907" rx="7.99536" stroke="#B2D5FF"/>
<path d="M7.572 10.2141C7.572 9.92941 7.604 9.68136 7.668 9.46991C7.74 9.25033 7.852 9.04294 8.004 8.84776C8.164 8.65257 8.376 8.45332 8.64 8.25C8.912 8.03855 9.124 7.85556 9.276 7.70104C9.436 7.54652 9.552 7.39607 9.624 7.24968C9.696 7.09516 9.732 6.9203 9.732 6.72512C9.732 6.41607 9.624 6.18022 9.408 6.01757C9.2 5.85491 8.9 5.77359 8.508 5.77359C8.156 5.77359 7.82 5.82645 7.5 5.93218C7.18 6.02977 6.86 6.16396 6.54 6.33475L6 5.18803C6.368 4.99285 6.768 4.83019 7.2 4.70007C7.632 4.56994 8.108 4.50488 8.628 4.50488C9.428 4.50488 10.048 4.70413 10.488 5.10264C10.936 5.50114 11.16 6.01757 11.16 6.65192C11.16 7.00163 11.104 7.30254 10.992 7.55465C10.888 7.79863 10.732 8.02635 10.524 8.2378C10.316 8.44925 10.06 8.6729 9.756 8.90875C9.508 9.10394 9.316 9.27066 9.18 9.40891C9.052 9.54717 8.964 9.68543 8.916 9.82368C8.876 9.95381 8.856 10.1165 8.856 10.3116V10.6166H7.572V10.2141ZM7.344 12.5563C7.344 12.2066 7.432 11.9626 7.608 11.8243C7.792 11.6861 8.012 11.6169 8.268 11.6169C8.516 11.6169 8.728 11.6861 8.904 11.8243C9.088 11.9626 9.18 12.2066 9.18 12.5563C9.18 12.8897 9.088 13.1296 8.904 13.276C8.728 13.4224 8.516 13.4956 8.268 13.4956C8.012 13.4956 7.792 13.4224 7.608 13.276C7.432 13.1296 7.344 12.8897 7.344 12.5563Z" fill="#6CA6ED"/>
</svg>
