<svg width="24" height="24" viewBox="0 0 24 24" fill="none" xmlns="http://www.w3.org/2000/svg">
<path d="M2.66504 16.0451C2.66504 15.7975 2.76339 15.5601 2.93845 15.385C3.11352 15.21 3.35096 15.1116 3.59854 15.1116H6.39904V11.8444L12 8.11035L17.601 11.8444V15.1116H20.4015C20.6491 15.1116 20.8866 15.21 21.0616 15.385C21.2367 15.5601 21.335 15.7975 21.335 16.0451V20.2459C21.335 20.4934 21.2367 20.7309 21.0616 20.9059C20.8866 21.081 20.6491 21.1794 20.4015 21.1794H2.66504V16.0451Z" fill="#E6E6E6" stroke="#A8A8A8" stroke-width="1.5" stroke-linejoin="round"/>
<path d="M12 3.44287V8.11037V3.44287Z" fill="#E6E6E6"/>
<path d="M12 3.44287V8.11037" stroke="#A8A8A8" stroke-width="1.5" stroke-linecap="round"/>
<path d="M17.601 6.24339V3.44289C17.601 3.44289 16.9008 4.84314 14.8005 3.44289C12.7001 2.04264 12 3.44289 12 3.44289V6.24339C12 6.24339 12.7001 4.84314 14.8005 6.24339C16.9008 7.64364 17.601 6.24339 17.601 6.24339ZM13.867 21.1794V15.1116H10.133V21.1794M9.19946 21.1794H14.8005H9.19946Z" fill="#E6E6E6"/>
<path d="M13.867 21.1794V15.1116H10.133V21.1794M9.19946 21.1794H14.8005M17.601 6.24339V3.44289C17.601 3.44289 16.9008 4.84314 14.8005 3.44289C12.7001 2.04264 12 3.44289 12 3.44289V6.24339C12 6.24339 12.7001 4.84314 14.8005 6.24339C16.9008 7.64364 17.601 6.24339 17.601 6.24339Z" stroke="#A8A8A8" stroke-width="1.5" stroke-linecap="round" stroke-linejoin="round"/>
</svg>
