<svg width="37" height="28" viewBox="0 0 37 28" fill="none" xmlns="http://www.w3.org/2000/svg">
<path fill-rule="evenodd" clip-rule="evenodd" d="M24.0781 1.5H2.07812V26.5H24.0781V1.5ZM0.578125 0V28H25.5781V0H0.578125Z" fill="#111111"/>
<path fill-rule="evenodd" clip-rule="evenodd" d="M5.93848 7.8689C5.93848 7.45468 6.27426 7.1189 6.68848 7.1189H20.5054C20.9197 7.1189 21.2554 7.45468 21.2554 7.8689C21.2554 8.28311 20.9197 8.6189 20.5054 8.6189H6.68848C6.27426 8.6189 5.93848 8.28311 5.93848 7.8689Z" fill="#111111"/>
<path fill-rule="evenodd" clip-rule="evenodd" d="M5.93848 12.5149C5.93848 12.1007 6.27426 11.7649 6.68848 11.7649H20.5054C20.9197 11.7649 21.2554 12.1007 21.2554 12.5149C21.2554 12.9291 20.9197 13.2649 20.5054 13.2649H6.68848C6.27426 13.2649 5.93848 12.9291 5.93848 12.5149Z" fill="#111111"/>
<path fill-rule="evenodd" clip-rule="evenodd" d="M5.93848 17.1609C5.93848 16.7467 6.27426 16.4109 6.68848 16.4109H15.7537C16.1679 16.4109 16.5037 16.7467 16.5037 17.1609C16.5037 17.5751 16.1679 17.9109 15.7537 17.9109H6.68848C6.27426 17.9109 5.93848 17.5751 5.93848 17.1609Z" fill="#111111"/>
<path d="M25.0504 21.7184L21.425 18.4669L31.5905 7.77832L35.1036 10.9923L25.0504 21.7184Z" fill="#FEED8A"/>
<path fill-rule="evenodd" clip-rule="evenodd" d="M30.9292 7.35735C31.2117 7.05442 31.6863 7.03784 31.9892 7.32034L35.5662 10.656C35.8692 10.9385 35.8857 11.4131 35.6032 11.716L25.5072 22.5426C25.2247 22.8455 24.7501 22.8621 24.4472 22.5796L20.8702 19.2439C20.5672 18.9614 20.5506 18.4868 20.8331 18.1839L30.9292 7.35735ZM31.5147 8.92887L22.4417 18.6584L24.9217 20.9711L33.9947 11.2415L31.5147 8.92887Z" fill="#111111"/>
<path fill-rule="evenodd" clip-rule="evenodd" d="M21.1504 18.0002C21.4036 17.9273 21.6766 17.9927 21.8693 18.1724L25.4464 21.5081C25.6377 21.6865 25.7223 21.9518 25.6694 22.2081C25.6165 22.4644 25.4339 22.6746 25.1875 22.7627L20.2543 24.5277C19.9919 24.6216 19.6991 24.5623 19.494 24.3736C19.2888 24.185 19.2052 23.8982 19.2768 23.6288L20.633 18.5282C20.7007 18.2735 20.8971 18.073 21.1504 18.0002ZM21.7612 20.1226L21.0933 22.6344L23.5227 21.7652L21.7612 20.1226Z" fill="#111111"/>
</svg>
