<svg width="39" height="43" viewBox="0 0 39 43" fill="none" xmlns="http://www.w3.org/2000/svg">
<path fill-rule="evenodd" clip-rule="evenodd" d="M0.425293 25.4167C0.425293 25.0025 0.761079 24.6667 1.17529 24.6667H6.41211C6.82632 24.6667 7.16211 25.0025 7.16211 25.4167V36.0919C7.16211 36.5061 6.82632 36.8419 6.41211 36.8419H1.17529C0.761079 36.8419 0.425293 36.5061 0.425293 36.0919V25.4167ZM1.92529 26.1667V35.3419H5.66211V26.1667H1.92529Z" fill="#111111"/>
<path d="M5.5752 19.0331V36.0919H28.7264V19.0331L17.1508 10.3203L5.5752 19.0331Z" fill="#F5F6F8"/>
<path fill-rule="evenodd" clip-rule="evenodd" d="M16.6998 9.72109C16.9669 9.52005 17.3347 9.52005 17.6018 9.72109L29.1774 18.4339C29.3657 18.5756 29.4764 18.7975 29.4764 19.0331V36.0919C29.4764 36.5061 29.1406 36.8419 28.7264 36.8419H5.5752C5.16098 36.8419 4.8252 36.5061 4.8252 36.0919V19.0331C4.8252 18.7975 4.93592 18.5756 5.12417 18.4339L16.6998 9.72109ZM6.3252 19.4073V35.3419H27.9764V19.4073L17.1508 11.259L6.3252 19.4073ZM12.1694 19.0331C12.1694 18.6189 12.5052 18.2831 12.9194 18.2831H21.0018C21.4161 18.2831 21.7518 18.6189 21.7518 19.0331C21.7518 19.4473 21.4161 19.7831 21.0018 19.7831H12.9194C12.5052 19.7831 12.1694 19.4473 12.1694 19.0331ZM12.1694 22.9538C12.1694 22.5396 12.5052 22.2038 12.9194 22.2038H21.0018C21.4161 22.2038 21.7518 22.5396 21.7518 22.9538C21.7518 23.368 21.4161 23.7038 21.0018 23.7038H12.9194C12.5052 23.7038 12.1694 23.368 12.1694 22.9538Z" fill="#111111"/>
<path fill-rule="evenodd" clip-rule="evenodd" d="M16.6241 9.60032C16.8918 9.39761 17.2616 9.39754 17.5294 9.60016L32.9365 21.2579C33.2668 21.5078 33.332 21.9782 33.082 22.3085C32.8321 22.6388 32.3617 22.704 32.0314 22.4541L17.077 11.1389L2.13445 22.4539C1.80422 22.7039 1.33382 22.639 1.08376 22.3087C0.83371 21.9785 0.898698 21.5081 1.22892 21.2581L16.6241 9.60032Z" fill="#111111"/>
<path fill-rule="evenodd" clip-rule="evenodd" d="M16.7194 0.647729C16.9579 0.51556 17.2493 0.523212 17.4805 0.667713L24.2694 4.91078C24.5531 5.08811 24.6851 5.43192 24.5928 5.75354C24.5006 6.07516 24.2065 6.29678 23.8719 6.29678H17.833V10.3202C17.833 10.7344 17.4972 11.0702 17.083 11.0702C16.6688 11.0702 16.333 10.7344 16.333 10.3202V1.30371C16.333 1.03107 16.481 0.779898 16.7194 0.647729ZM17.833 4.79678H21.2568L17.833 2.6569V4.79678Z" fill="#111111"/>
<circle cx="26.9144" cy="31.7748" r="7.62634" fill="#FEED8A"/>
<path fill-rule="evenodd" clip-rule="evenodd" d="M27.0686 38.8433C30.9725 38.8433 34.1373 35.6786 34.1373 31.7747C34.1373 27.8708 30.9725 24.7061 27.0686 24.7061C23.1647 24.7061 20 27.8708 20 31.7747C20 35.6786 23.1647 38.8433 27.0686 38.8433ZM27.0686 40.3433C31.801 40.3433 35.6373 36.507 35.6373 31.7747C35.6373 27.0424 31.801 23.2061 27.0686 23.2061C22.3363 23.2061 18.5 27.0424 18.5 31.7747C18.5 36.507 22.3363 40.3433 27.0686 40.3433Z" fill="#111111"/>
<path fill-rule="evenodd" clip-rule="evenodd" d="M32.2475 37.1682C32.5404 36.8753 33.0153 36.8753 33.3082 37.1682L37.8373 41.6973C38.1302 41.9902 38.1302 42.465 37.8373 42.7579C37.5444 43.0508 37.0695 43.0508 36.7766 42.7579L32.2475 38.2288C31.9546 37.9359 31.9546 37.461 32.2475 37.1682Z" fill="#111111"/>
</svg>
