<svg width="17" height="16" viewBox="0 0 17 16" fill="none" xmlns="http://www.w3.org/2000/svg">
<path d="M6.43592 5.42658L2.37948 5.99893L2.30763 6.01316C2.19887 6.04126 2.09972 6.09695 2.02031 6.17453C1.94089 6.25212 1.88406 6.34883 1.85561 6.45479C1.82717 6.56074 1.82812 6.67215 1.85839 6.77762C1.88865 6.8831 1.94714 6.97887 2.02788 7.05516L4.96657 9.83896L4.27355 13.7712L4.26528 13.8393C4.25862 13.9487 4.28198 14.058 4.33296 14.1558C4.38394 14.2536 4.46072 14.3364 4.55542 14.3958C4.65013 14.4553 4.75936 14.4891 4.87193 14.494C4.98451 14.4988 5.09638 14.4744 5.1961 14.4234L8.82401 12.5671L12.4437 14.4234L12.5072 14.4518C12.6122 14.4921 12.7262 14.5044 12.8377 14.4876C12.9492 14.4707 13.054 14.4254 13.1415 14.3561C13.229 14.2868 13.296 14.1961 13.3356 14.0933C13.3752 13.9906 13.386 13.8794 13.3669 13.7712L12.6732 9.83896L15.6132 7.05454L15.6627 7.00194C15.7336 6.91703 15.78 6.81536 15.7974 6.70728C15.8147 6.59921 15.8023 6.4886 15.7614 6.38673C15.7205 6.28485 15.6525 6.19534 15.5645 6.12733C15.4765 6.05932 15.3715 6.01523 15.2603 5.99955L11.2038 5.42658L9.39052 1.85013C9.33805 1.74651 9.25682 1.65925 9.15603 1.59824C9.05523 1.53722 8.9389 1.50488 8.8202 1.50488C8.7015 1.50488 8.58517 1.53722 8.48437 1.59824C8.38358 1.65925 8.30235 1.74651 8.24988 1.85013L6.43592 5.42658Z" fill="#A8A8A8"/>
</svg>
