<svg width="41" height="38" viewBox="0 0 41 38" fill="none" xmlns="http://www.w3.org/2000/svg">
<path d="M13.6032 11.1766L2.04257 12.8078L1.83781 12.8484C1.52784 12.9285 1.24527 13.0872 1.01894 13.3083C0.792619 13.5294 0.63065 13.805 0.549578 14.107C0.468506 14.4089 0.471235 14.7264 0.557488 15.0271C0.643741 15.3277 0.810426 15.6006 1.04052 15.818L9.41567 23.7517L7.44057 34.9584L7.41701 35.1524C7.39804 35.4644 7.46461 35.7756 7.6099 36.0544C7.7552 36.3331 7.974 36.5692 8.2439 36.7386C8.5138 36.908 8.82511 37.0045 9.14595 37.0183C9.46678 37.0321 9.78562 36.9626 10.0698 36.817L20.4092 31.5267L30.725 36.817L30.9062 36.8982C31.2053 37.0128 31.5303 37.048 31.848 37C32.1657 36.9521 32.4645 36.8227 32.7139 36.6253C32.9632 36.4279 33.1541 36.1694 33.267 35.8765C33.3798 35.5836 33.4106 35.2667 33.356 34.9584L31.3791 23.7517L39.7579 15.8162L39.8992 15.6663C40.1011 15.4243 40.2335 15.1346 40.2829 14.8266C40.3322 14.5186 40.2968 14.2034 40.1803 13.913C40.0637 13.6227 39.8701 13.3676 39.6193 13.1737C39.3684 12.9799 39.0692 12.8543 38.7522 12.8096L27.1916 11.1766L22.0237 0.983946C21.8742 0.68863 21.6427 0.439951 21.3554 0.266057C21.0681 0.0921633 20.7366 0 20.3983 0C20.06 0 19.7285 0.0921633 19.4412 0.266057C19.154 0.439951 18.9225 0.68863 18.7729 0.983946L13.6032 11.1766Z" fill="#EFEFEF"/>
</svg>
