<svg width="24" height="24" viewBox="0 0 24 24" fill="none" xmlns="http://www.w3.org/2000/svg">
<path d="M17 4.5H7C5.61929 4.5 4.5 5.61929 4.5 7V17C4.5 18.3807 5.61929 19.5 7 19.5H17C18.3807 19.5 19.5 18.3807 19.5 17V7C19.5 5.61929 18.3807 4.5 17 4.5Z" fill="#E6E6E6" stroke="#A8A8A8" stroke-width="1.5" stroke-linecap="round" stroke-linejoin="round"/>
<path d="M12 12.8333C13.3807 12.8333 14.5 11.714 14.5 10.3333C14.5 8.95254 13.3807 7.83325 12 7.83325C10.6193 7.83325 9.5 8.95254 9.5 10.3333C9.5 11.714 10.6193 12.8333 12 12.8333Z" stroke="#A8A8A8" stroke-width="1.5" stroke-linecap="round" stroke-linejoin="round"/>
<path d="M16.1668 16.1666C16.1668 14.3249 14.301 12.8333 12.0002 12.8333C9.69933 12.8333 7.8335 14.3249 7.8335 16.1666" stroke="#A8A8A8" stroke-width="1.5" stroke-linecap="round" stroke-linejoin="round"/>
</svg>
