<svg width="31" height="31" viewBox="0 0 31 31" fill="none" xmlns="http://www.w3.org/2000/svg">
<path d="M15.4996 20.5537H15.5096M15.4996 13.0537V16.8037M13.7183 7.07494L4.89583 21.8037C4.71405 22.1187 4.61791 22.4759 4.61695 22.8396C4.61599 23.2033 4.71026 23.561 4.89038 23.877C5.0705 24.1929 5.33019 24.4563 5.64364 24.6408C5.95709 24.8253 6.31338 24.9246 6.67708 24.9287H24.3221C24.6859 24.9249 25.0424 24.8259 25.3561 24.6415C25.6698 24.4571 25.9297 24.1937 26.1098 23.8776C26.29 23.5614 26.3843 23.2036 26.3831 22.8398C26.382 22.4759 26.2855 22.1187 26.1033 21.8037L17.2821 7.07494C17.0965 6.7686 16.8351 6.51529 16.5231 6.33948C16.2111 6.16367 15.859 6.0713 15.5008 6.0713C15.1427 6.0713 14.7906 6.16367 14.4786 6.33948C14.1665 6.51529 13.9051 6.7686 13.7196 7.07494" stroke="#111111" stroke-width="1.875" stroke-miterlimit="10" stroke-linecap="round" stroke-linejoin="round"/>
</svg>
