<svg width="24" height="24" viewBox="0 0 24 24" fill="none" xmlns="http://www.w3.org/2000/svg">
<path d="M8.3801 20.474C8.04959 20.2526 7.75423 19.9819 7.51134 19.6682C7.24063 19.3455 6.99511 19.004 6.76533 18.6515C6.2297 17.8672 5.81158 17.012 5.51937 16.1076C5.16945 15.0584 5 14.0527 5 13.069C5 11.9705 5.23765 11.0115 5.70246 10.2057C6.04399 9.57719 6.55496 9.04995 7.16981 8.68115C7.76525 8.30972 8.45669 8.10722 9.15601 8.09358C9.40205 8.09358 9.66698 8.12925 9.94818 8.19745C10.1502 8.25463 10.3962 8.34487 10.6968 8.45714C11.0792 8.60455 11.2896 8.69479 11.361 8.71682C11.585 8.79866 11.7733 8.83433 11.9213 8.83433C12.0335 8.83433 12.192 8.79866 12.3719 8.7441C12.4732 8.70843 12.6641 8.64547 12.9374 8.52848C13.2081 8.42986 13.4211 8.34539 13.5906 8.28244C13.8503 8.20584 14.1016 8.13502 14.3256 8.09935C14.5989 8.05843 14.8691 8.04479 15.1288 8.0663C15.6261 8.09935 16.0799 8.20584 16.487 8.35851C17.1999 8.64547 17.7765 9.09349 18.2056 9.73038C18.0225 9.84265 17.8557 9.97065 17.6973 10.1154C17.3558 10.4161 17.0688 10.7712 16.8364 11.1673C16.5358 11.7056 16.3826 12.3152 16.3857 12.9295C16.3968 13.6865 16.5909 14.3533 16.9733 14.9298C17.2466 15.3506 17.607 15.7084 18.0472 16.0037C18.266 16.1511 18.4543 16.2524 18.6348 16.3206C18.5503 16.5829 18.4601 16.8368 18.3536 17.0886C18.1101 17.6542 17.8206 18.1951 17.479 18.706C17.1758 19.1462 16.9382 19.4741 16.7577 19.6923C16.4765 20.0254 16.2058 20.2799 15.9325 20.4572C15.6319 20.6565 15.2767 20.763 14.9158 20.763C14.6697 20.7741 14.4268 20.741 14.1918 20.6754C13.9898 20.6072 13.7899 20.5333 13.5932 20.4488C13.3881 20.3559 13.1777 20.2741 12.9621 20.2112C12.6945 20.1403 12.4212 20.1073 12.1479 20.1073C11.8667 20.1073 11.5934 20.143 11.3363 20.2085C11.1175 20.2715 10.9072 20.3449 10.6994 20.4352C10.4072 20.5579 10.2131 20.6403 10.1008 20.6754C9.87683 20.741 9.64442 20.7819 9.4094 20.7956C9.04584 20.7956 8.70694 20.6917 8.37118 20.4813L8.3801 20.474ZM13.1751 7.56057C12.6998 7.79822 12.246 7.89947 11.7953 7.86642C11.7245 7.41263 11.7953 6.94834 11.9837 6.43999C12.1505 6.00561 12.3745 5.61477 12.683 5.26485C13.0025 4.90129 13.3881 4.60069 13.8225 4.38507C14.2841 4.14742 14.7243 4.01889 15.145 4C15.1996 4.4753 15.145 4.94273 14.9703 5.44794C14.8093 5.89596 14.5716 6.30883 14.271 6.67764C13.9652 7.0412 13.588 7.3418 13.1614 7.56004L13.1751 7.56057Z" fill="white"/>
</svg>
