<svg width="20" height="21" viewBox="0 0 20 21" fill="none" xmlns="http://www.w3.org/2000/svg">
<path d="M10.8332 2.98242C11.2537 2.98229 11.6587 3.14109 11.967 3.427C12.2753 3.71291 12.4642 4.10479 12.4957 4.52409L12.4999 4.64909V7.98242H14.9999C15.4204 7.98229 15.8254 8.14109 16.1337 8.427C16.442 8.71291 16.6309 9.10479 16.6624 9.52409L16.6666 9.64909V16.3158H17.4999C17.7123 16.316 17.9166 16.3973 18.071 16.5431C18.2255 16.6889 18.3184 16.8882 18.3309 17.1003C18.3433 17.3123 18.2743 17.5211 18.138 17.6839C18.0017 17.8468 17.8083 17.9515 17.5974 17.9766L17.4999 17.9824H2.49989C2.28749 17.9822 2.0832 17.9009 1.92875 17.755C1.7743 17.6092 1.68136 17.41 1.66891 17.1979C1.65647 16.9859 1.72545 16.7771 1.86178 16.6142C1.9981 16.4514 2.19148 16.3467 2.40239 16.3216L2.49989 16.3158H3.33322V4.64909C3.33309 4.22861 3.4919 3.82362 3.7778 3.5153C4.06371 3.20698 4.45559 3.01812 4.87489 2.98659L4.99989 2.98242H10.8332ZM14.9999 9.64909H12.4999V16.3158H14.9999V9.64909ZM10.8332 4.64909H4.99989V16.3158H10.8332V4.64909ZM9.16656 12.9824V14.6491H6.66656V12.9824H9.16656ZM9.16656 9.64909V11.3158H6.66656V9.64909H9.16656ZM9.16656 6.31576V7.98242H6.66656V6.31576H9.16656Z" fill="#A8A8A8"/>
</svg>
