<svg width="20" height="21" viewBox="0 0 20 21" fill="none" xmlns="http://www.w3.org/2000/svg">
<path d="M14.2194 17.2215C13.6094 17.2215 12.7525 17.0008 11.4693 16.2839C9.90888 15.4089 8.70195 14.601 7.15 13.0531C5.65367 11.5578 4.92551 10.5896 3.9064 8.73511C2.75509 6.64126 2.95135 5.54371 3.17074 5.07462C3.432 4.51397 3.81765 4.17864 4.31611 3.84581C4.59923 3.66031 4.89885 3.5013 5.21115 3.37079C5.2424 3.35735 5.27147 3.34454 5.29741 3.33297C5.4521 3.26328 5.68649 3.15796 5.98338 3.27047C6.18151 3.34485 6.3584 3.49704 6.63528 3.77049C7.20312 4.33052 7.9791 5.57777 8.26536 6.1903C8.45756 6.60313 8.58475 6.87565 8.58507 7.18129C8.58507 7.53912 8.40506 7.81507 8.18661 8.1129C8.14567 8.16884 8.10504 8.22228 8.06567 8.27415C7.82784 8.58667 7.77565 8.67699 7.81003 8.83824C7.87972 9.16232 8.39943 10.1271 9.25354 10.9793C10.1076 11.8315 11.0446 12.3184 11.3699 12.3878C11.538 12.4237 11.6302 12.3694 11.9527 12.1231C11.999 12.0878 12.0465 12.0512 12.0962 12.0147C12.4293 11.7668 12.6925 11.5915 13.0418 11.5915H13.0437C13.3478 11.5915 13.6081 11.7234 14.0394 11.9409C14.6019 12.2247 15.8867 12.9906 16.4501 13.5591C16.7242 13.8354 16.877 14.0116 16.9517 14.2094C17.0642 14.5073 16.9583 14.7407 16.8892 14.897C16.8777 14.9229 16.8648 14.9514 16.8514 14.9829C16.7199 15.2947 16.5599 15.5937 16.3736 15.8761C16.0414 16.373 15.7048 16.7577 15.1429 17.0193C14.8544 17.1558 14.5386 17.2249 14.2194 17.2215Z" fill="#A8A8A8"/>
</svg>
