<svg width="24" height="25" viewBox="0 0 24 25" fill="none" xmlns="http://www.w3.org/2000/svg">
<path d="M11.9998 13.6312L7.0998 18.5312C6.91647 18.7146 6.68314 18.8063 6.3998 18.8063C6.11647 18.8063 5.88314 18.7146 5.6998 18.5312C5.51647 18.3479 5.4248 18.1146 5.4248 17.8313C5.4248 17.5479 5.51647 17.3146 5.6998 17.1312L10.5998 12.2312L5.6998 7.33125C5.51647 7.14792 5.4248 6.91458 5.4248 6.63125C5.4248 6.34792 5.51647 6.11458 5.6998 5.93125C5.88314 5.74792 6.11647 5.65625 6.3998 5.65625C6.68314 5.65625 6.91647 5.74792 7.0998 5.93125L11.9998 10.8313L16.8998 5.93125C17.0831 5.74792 17.3165 5.65625 17.5998 5.65625C17.8831 5.65625 18.1165 5.74792 18.2998 5.93125C18.4831 6.11458 18.5748 6.34792 18.5748 6.63125C18.5748 6.91458 18.4831 7.14792 18.2998 7.33125L13.3998 12.2312L18.2998 17.1312C18.4831 17.3146 18.5748 17.5479 18.5748 17.8313C18.5748 18.1146 18.4831 18.3479 18.2998 18.5312C18.1165 18.7146 17.8831 18.8063 17.5998 18.8063C17.3165 18.8063 17.0831 18.7146 16.8998 18.5312L11.9998 13.6312Z" fill="#111111"/>
</svg>
