<svg width="26" height="25" viewBox="0 0 26 25" fill="none" xmlns="http://www.w3.org/2000/svg">
<g clip-path="url(#clip0_1053_3382)">
<path d="M11.4128 2.64257C12.1321 1.44502 13.8679 1.44502 14.5872 2.64257C15.0833 3.46864 16.1301 3.77603 16.9941 3.34933C18.2467 2.73074 19.7069 3.66918 19.6645 5.06548C19.6353 6.02866 20.3498 6.85321 21.3073 6.96135C22.6954 7.11813 23.4165 8.69706 22.626 9.8488C22.0806 10.6433 22.2359 11.7232 22.983 12.3319C24.066 13.2142 23.8189 14.9323 22.5312 15.4739C21.6429 15.8474 21.1897 16.8398 21.4891 17.7558C21.9231 19.0836 20.7864 20.3954 19.4104 20.1547C18.4612 19.9887 17.5433 20.5786 17.3 21.511C16.9473 22.8627 15.2818 23.3517 14.2543 22.4053C13.5455 21.7525 12.4545 21.7525 11.7457 22.4053C10.7182 23.3517 9.05272 22.8627 8.69998 21.511C8.45666 20.5786 7.53883 19.9887 6.58962 20.1547C5.21356 20.3954 4.07686 19.0836 4.51089 17.7558C4.81029 16.8398 4.35706 15.8474 3.46878 15.4739C2.18106 14.9323 1.93403 13.2142 3.01703 12.3319C3.76409 11.7232 3.91936 10.6433 3.37404 9.8488C2.5835 8.69706 3.30458 7.11813 4.6927 6.96135C5.65022 6.85321 6.3647 6.02866 6.33548 5.06548C6.29311 3.66918 7.75335 2.73074 9.00587 3.34933C9.86986 3.77603 10.9167 3.46865 11.4128 2.64257Z" fill="#6CA6ED"/>
<path d="M7.80285 13.2591L10.5392 16.1765C10.9461 16.6104 11.6396 16.5952 12.0272 16.144L17.7306 9.50391" stroke="white" stroke-width="2" stroke-linecap="round"/>
</g>
<defs>
<clipPath id="clip0_1053_3382">
<rect width="25" height="25" fill="white" transform="translate(0.5)"/>
</clipPath>
</defs>
</svg>
