<svg width="47" height="52" viewBox="0 0 47 52" fill="none" xmlns="http://www.w3.org/2000/svg">
<g clip-path="url(#clip0_1713_3905)">
<circle cx="23" cy="31.209" r="21.5" fill="#FEDD41"/>
<circle cx="30.2658" cy="30.8461" r="2.41077" fill="#515151"/>
<circle cx="17.088" cy="30.8461" r="2.41077" fill="#515151"/>
<path d="M23.6413 31.209C21.5912 31.209 20.2246 32.0175 20.2246 32.738C20.2246 33.9198 21.5774 35.3703 23.7712 35.3703C25.9649 35.3703 27.1028 33.682 27.1028 32.738C27.1028 32.1126 25.6913 31.209 23.6413 31.209Z" fill="#F57F00"/>
<ellipse cx="14.3317" cy="35.3717" rx="2.42742" ry="2.08065" fill="#FBC12E"/>
<ellipse cx="33.0563" cy="35.3717" rx="2.42742" ry="2.08065" fill="#FBC12E"/>
<path d="M18.9812 2.48821C15.5126 3.44062 16.663 9.33173 18.6531 11.8886L28.5925 13.6628C30.1404 11.1061 31.5323 6.82775 28.4973 4.05375C26.5765 2.2981 23.8919 4.21854 23.9585 5.27042C23.4137 3.25129 21.1968 1.87984 18.9812 2.48821Z" fill="#FEDD41"/>
<ellipse cx="15" cy="33.5" rx="2.5" ry="1.5" fill="#B2D5FF"/>
<ellipse cx="33" cy="33.5" rx="2.5" ry="1.5" fill="#B2D5FF"/>
<circle cx="12.6316" cy="37.1316" r="1.13158" fill="#B2D5FF"/>
<circle cx="12.6316" cy="41.6579" r="1.13158" fill="#B2D5FF"/>
</g>
<defs>
<clipPath id="clip0_1713_3905">
<rect width="46" height="52" fill="white" transform="translate(0.5)"/>
</clipPath>
</defs>
</svg>
