<svg width="36" height="46" viewBox="0 0 36 46" fill="none" xmlns="http://www.w3.org/2000/svg">
<ellipse cx="18" cy="26.8705" rx="18" ry="18.3554" fill="#FEDD41"/>
<ellipse cx="24.0828" cy="26.5606" rx="2.01832" ry="2.05817" fill="black"/>
<ellipse cx="13.0496" cy="26.5606" rx="2.01832" ry="2.05817" fill="black"/>
<path d="M18.5372 26.8704C16.8209 26.8704 15.6768 27.5606 15.6768 28.1757C15.6768 29.1847 16.8093 30.423 18.646 30.423C20.4826 30.423 21.4353 28.9817 21.4353 28.1757C21.4353 27.6418 20.2535 26.8704 18.5372 26.8704Z" fill="#F57F00"/>
<ellipse cx="10.7422" cy="30.4238" rx="2.03226" ry="1.77633" fill="#F57F00" fill-opacity="0.3"/>
<ellipse cx="26.42" cy="30.4238" rx="2.03226" ry="1.77633" fill="#F57F00" fill-opacity="0.3"/>
<path d="M14.6346 2.35011C11.7307 3.16322 12.6938 8.19269 14.3599 10.3756L22.6813 11.8903C23.9772 9.70752 25.1425 6.05494 22.6016 3.68667C20.9935 2.18781 18.7459 3.82736 18.8017 4.7254C18.3455 3.00158 16.4896 1.83072 14.6346 2.35011Z" fill="#FEDD41"/>
</svg>
