<svg width="20" height="18" viewBox="0 0 20 18" fill="none" xmlns="http://www.w3.org/2000/svg">
<path d="M1 17.9252V9.87431L7.89531 3.43363L12.4922 7.62007L17.7458 2.46753V17.9252H1Z" fill="#FEED8A"/>
<path d="M0.802877 8.92437C0.516026 9.21122 0.516026 9.6763 0.802877 9.96315C1.08973 10.25 1.5548 10.25 1.84165 9.96315L0.802877 8.92437ZM7.933 2.83302L8.45239 2.31363C8.16554 2.02678 7.70047 2.02678 7.41362 2.31363L7.933 2.83302ZM12.4451 7.34511L11.9257 7.8645C12.2126 8.15135 12.6776 8.15135 12.9645 7.8645L12.4451 7.34511ZM1.84165 9.96315L8.45239 3.35241L7.41362 2.31363L0.802877 8.92437L1.84165 9.96315ZM7.41362 3.35241L11.9257 7.8645L12.9645 6.82572L8.45239 2.31363L7.41362 3.35241ZM12.9645 7.8645L19.0506 1.77842L18.0118 0.739644L11.9257 6.82572L12.9645 7.8645Z" fill="#CBBE6E"/>
<path d="M18.0348 5.13329L14.358 1.758C14.1775 1.59233 14.2576 1.29213 14.4966 1.23835L19.4971 0.113255C19.7228 0.0624509 19.9201 0.272938 19.8548 0.494973L18.5312 4.99535C18.4678 5.2109 18.2003 5.28522 18.0348 5.13329Z" fill="#CBBE6E"/>
</svg>
