<svg width="36" height="46" viewBox="0 0 36 46" fill="none" xmlns="http://www.w3.org/2000/svg">
<ellipse cx="18" cy="26.8704" rx="18" ry="18.3551" fill="#E7E7E7"/>
<ellipse cx="24.0828" cy="26.5608" rx="2.01832" ry="2.05814" fill="black"/>
<ellipse cx="13.0496" cy="26.5608" rx="2.01832" ry="2.05814" fill="black"/>
<path d="M18.5372 26.8708C16.8209 26.8708 15.6768 27.5611 15.6768 28.1762C15.6768 29.1852 16.8093 30.4234 18.646 30.4234C20.4826 30.4234 21.4353 28.9822 21.4353 28.1762C21.4353 27.6423 20.2535 26.8708 18.5372 26.8708Z" fill="#F57F00"/>
<ellipse cx="10.7422" cy="30.4233" rx="2.03226" ry="1.7763" fill="#F57F00" fill-opacity="0.15"/>
<ellipse cx="26.42" cy="30.4233" rx="2.03226" ry="1.7763" fill="#F57F00" fill-opacity="0.15"/>
<path d="M14.6346 2.35007C11.7307 3.16317 12.6938 8.19255 14.3599 10.3754L22.6813 11.8901C23.9772 9.70736 25.1425 6.05484 22.6016 3.68662C20.9935 2.18777 18.7459 3.8273 18.8017 4.72532C18.3455 3.00154 16.4896 1.83069 14.6346 2.35007Z" fill="#E80000"/>
</svg>
