<svg width="20" height="20" viewBox="0 0 20 20" fill="none" xmlns="http://www.w3.org/2000/svg">
<ellipse cx="10" cy="8.98853" rx="9.82861" ry="6.63306" fill="#B2D5FF"/>
<path d="M10.6104 18.1556C11.587 17.3313 11.4467 15.2079 11.2545 14.2492L16.0894 13.7719C16.2347 17.4118 9.38953 19.186 10.6104 18.1556Z" fill="#B2D5FF"/>
<path d="M12.6992 9.28845C12.6992 8.89645 12.8019 8.62112 13.0072 8.46245C13.2126 8.29445 13.4646 8.21045 13.7632 8.21045C14.0619 8.21045 14.3139 8.28978 14.5192 8.44845C14.7339 8.60712 14.8412 8.88712 14.8412 9.28845C14.8412 9.67112 14.7339 9.94645 14.5192 10.1144C14.3139 10.2824 14.0619 10.3664 13.7632 10.3664C13.4646 10.3664 13.2126 10.2824 13.0072 10.1144C12.8019 9.94645 12.6992 9.67112 12.6992 9.28845Z" fill="#515151"/>
<path d="M8.92871 9.28845C8.92871 8.89645 9.03138 8.62112 9.23671 8.46245C9.44204 8.29445 9.69404 8.21045 9.99271 8.21045C10.2914 8.21045 10.5434 8.28978 10.7487 8.44845C10.9634 8.60712 11.0707 8.88712 11.0707 9.28845C11.0707 9.67112 10.9634 9.94645 10.7487 10.1144C10.5434 10.2824 10.2914 10.3664 9.99271 10.3664C9.69404 10.3664 9.44204 10.2824 9.23671 10.1144C9.03138 9.94645 8.92871 9.67112 8.92871 9.28845Z" fill="#515151"/>
<path d="M5.15869 9.28845C5.15869 8.89645 5.26136 8.62112 5.46669 8.46245C5.67202 8.29445 5.92402 8.21045 6.22269 8.21045C6.52136 8.21045 6.77336 8.28978 6.97869 8.44845C7.19336 8.60712 7.30069 8.88712 7.30069 9.28845C7.30069 9.67112 7.19336 9.94645 6.97869 10.1144C6.77336 10.2824 6.52136 10.3664 6.22269 10.3664C5.92402 10.3664 5.67202 10.2824 5.46669 10.1144C5.26136 9.94645 5.15869 9.67112 5.15869 9.28845Z" fill="#515151"/>
</svg>
