<svg width="20" height="20" viewBox="0 0 20 20" fill="none" xmlns="http://www.w3.org/2000/svg">
<path d="M15.23 13.7127H13.3435C13.2321 13.7128 13.1222 13.738 13.0219 13.7865C12.9217 13.835 12.8337 13.9056 12.7645 13.9928L10.5791 16.7199C10.5091 16.8074 10.4203 16.8781 10.3193 16.9266C10.2183 16.9752 10.1077 17.0004 9.99561 17.0004C9.88354 17.0004 9.7729 16.9752 9.67189 16.9266C9.57089 16.8781 9.4821 16.8074 9.41211 16.7199L7.22675 13.9928C7.15748 13.9055 7.06935 13.8349 6.96896 13.7864C6.86856 13.7378 6.75849 13.7127 6.64698 13.7127H4.77019C3.52847 13.7127 2.52881 12.713 2.52881 11.4713V6.24139C2.52881 4.99966 3.52847 4 4.77019 4H15.23C16.4725 4 17.4714 4.99966 17.4714 6.24139V11.4713C17.4714 12.713 16.4725 13.7127 15.23 13.7127Z" stroke="#A8A8A8" stroke-width="1.5" stroke-miterlimit="10" stroke-linejoin="round"/>
</svg>
