<svg width="20" height="21" viewBox="0 0 20 21" fill="none" xmlns="http://www.w3.org/2000/svg">
<path d="M16.6168 8.29624C16.1551 7.21201 15.4344 6.25769 14.5178 5.51705C13.6012 4.7764 12.5168 4.27208 11.3598 4.04835L12.405 2.37612L11.345 1.71362L9.9659 3.92019C8.56113 3.92672 7.18905 4.34466 6.01918 5.12237C4.84931 5.90008 3.93291 7.00348 3.38321 8.29624C2.6469 8.31024 1.94548 8.61256 1.42971 9.13823C0.913938 9.66389 0.625 10.3709 0.625 11.1074C0.625 11.8438 0.913938 12.5509 1.42971 13.0765C1.94548 13.6022 2.6469 13.9045 3.38321 13.9185C3.93524 15.2166 4.8569 16.3236 6.03343 17.1018C7.20997 17.88 8.58941 18.2949 10 18.2949C11.4106 18.2949 12.79 17.88 13.9666 17.1018C15.1431 16.3236 16.0648 15.2166 16.6168 13.9185C17.3531 13.9045 18.0545 13.6022 18.5703 13.0765C19.0861 12.5509 19.375 11.8438 19.375 11.1074C19.375 10.3709 19.0861 9.66389 18.5703 9.13823C18.0545 8.61256 17.3531 8.31024 16.6168 8.29624ZM17.6774 12.2015C17.3915 12.4939 17.0019 12.6618 16.593 12.6687L15.7835 12.6841L15.4666 13.4292C15.0106 14.5017 14.2492 15.4164 13.2772 16.0594C12.3051 16.7024 11.1655 17.0452 10 17.0452C8.83459 17.0452 7.69491 16.7024 6.72289 16.0594C5.75087 15.4164 4.98946 14.5017 4.53348 13.4292L4.21653 12.6841L3.40696 12.6687C2.99792 12.6611 2.60821 12.4932 2.32165 12.2012C2.03508 11.9093 1.87454 11.5165 1.87454 11.1074C1.87454 10.6983 2.03508 10.3055 2.32165 10.0135C2.60821 9.72153 2.99792 9.55366 3.40696 9.54601L4.21653 9.53061L4.53348 8.78554C4.98947 7.71303 5.75089 6.79835 6.72291 6.15539C7.69492 5.51244 8.8346 5.16962 10 5.16962C11.1654 5.16962 12.3051 5.51244 13.2771 6.15539C14.2492 6.79835 15.0106 7.71303 15.4666 8.78554L15.7835 9.53061L16.593 9.54601C16.8981 9.55177 17.1948 9.6468 17.4465 9.81935C17.6982 9.9919 17.8938 10.2344 18.0091 10.5169C18.1245 10.7994 18.1546 11.1095 18.0956 11.4089C18.0366 11.7083 17.8913 11.9838 17.6774 12.2015Z" fill="#A8A8A8"/>
<path d="M6.5625 9.54492H8.125V11.1074H6.5625V9.54492ZM11.875 9.54492H13.4375V11.1074H11.875V9.54492ZM10 15.4824C10.4104 15.4824 10.8167 15.4016 11.1959 15.2445C11.575 15.0875 11.9195 14.8573 12.2097 14.5671C12.4999 14.2769 12.7301 13.9325 12.8871 13.5533C13.0442 13.1742 13.125 12.7678 13.125 12.3574H6.875C6.875 12.7678 6.95583 13.1742 7.11288 13.5533C7.26992 13.9325 7.50011 14.2769 7.79029 14.5671C8.37634 15.1532 9.1712 15.4824 10 15.4824Z" fill="#A8A8A8"/>
</svg>
