<svg width="20" height="21" viewBox="0 0 20 21" fill="none" xmlns="http://www.w3.org/2000/svg">
<path d="M10.0001 18.8158C5.39758 18.8158 1.66675 15.085 1.66675 10.4825C1.66675 5.88 5.39758 2.14917 10.0001 2.14917C14.6026 2.14917 18.3334 5.88 18.3334 10.4825C18.3334 15.085 14.6026 18.8158 10.0001 18.8158ZM10.0001 17.1492C11.7682 17.1492 13.4639 16.4468 14.7141 15.1965C15.9644 13.9463 16.6667 12.2506 16.6667 10.4825C16.6667 8.71439 15.9644 7.0187 14.7141 5.76846C13.4639 4.51822 11.7682 3.81584 10.0001 3.81584C8.23197 3.81584 6.53628 4.51822 5.28604 5.76846C4.03579 7.0187 3.33341 8.71439 3.33341 10.4825C3.33341 12.2506 4.03579 13.9463 5.28604 15.1965C6.53628 16.4468 8.23197 17.1492 10.0001 17.1492ZM10.8334 10.4825H14.1667V12.1492H9.16675V6.31584H10.8334V10.4825Z" fill="#A8A8A8"/>
</svg>
