<svg width="24" height="24" viewBox="0 0 24 24" fill="none" xmlns="http://www.w3.org/2000/svg">
<path d="M16.707 16.9112V15.7652C16.707 15.2129 17.1547 14.7652 17.707 14.7652H18.7339C19.2862 14.7652 19.7339 14.3175 19.7339 13.7652V7.74146C19.7339 7.18917 19.2862 6.74146 18.7339 6.74146H9.10667C8.55439 6.74146 8.10667 7.18917 8.10667 7.74145V13.7652C8.10667 14.3175 8.55439 14.7652 9.10667 14.7652H12.4018C12.7219 14.7652 13.0226 14.9184 13.2108 15.1773L14.898 17.4991C15.4675 18.2827 16.707 17.8799 16.707 16.9112Z" fill="#E6E6E6" stroke="#A8A8A8" stroke-width="1.5"/>
<path d="M7.57195 15.402V13.7746C7.57195 13.2223 7.12423 12.7746 6.57195 12.7746H5.26611C4.71383 12.7746 4.26611 12.3269 4.26611 11.7746V5.01147C4.26611 4.45919 4.71383 4.01147 5.26611 4.01147H15.9648C16.5171 4.01147 16.9648 4.45919 16.9648 5.01147V11.7746C16.9648 12.3269 16.5171 12.7746 15.9648 12.7746H12.2269C11.9069 12.7746 11.6061 12.9278 11.418 13.1868L9.3809 15.9899C8.81145 16.7735 7.57195 16.3707 7.57195 15.402Z" fill="#E6E6E6" stroke="#A8A8A8" stroke-width="1.5"/>
</svg>
