<svg width="20" height="20" viewBox="0 0 20 20" fill="none" xmlns="http://www.w3.org/2000/svg">
<path d="M2.5 10.8335C5.5 4.16683 14.5 4.16683 17.5 10.8335" stroke="#A8A8A8" stroke-width="1.25" stroke-linecap="round" stroke-linejoin="round"/>
<path d="M10 14.167C9.6717 14.167 9.34661 14.1023 9.04329 13.9767C8.73998 13.8511 8.46438 13.6669 8.23223 13.4348C8.00009 13.2026 7.81594 12.927 7.6903 12.6237C7.56466 12.3204 7.5 11.9953 7.5 11.667C7.5 11.3387 7.56466 11.0136 7.6903 10.7103C7.81594 10.407 8.00009 10.1314 8.23223 9.89922C8.46438 9.66708 8.73998 9.48293 9.04329 9.35729C9.34661 9.23166 9.6717 9.16699 10 9.16699C10.663 9.16699 11.2989 9.43038 11.7678 9.89922C12.2366 10.3681 12.5 11.004 12.5 11.667C12.5 12.33 12.2366 12.9659 11.7678 13.4348C11.2989 13.9036 10.663 14.167 10 14.167Z" fill="#A8A8A8" stroke="#A8A8A8" stroke-width="1.25" stroke-linecap="round" stroke-linejoin="round"/>
</svg>
