<svg width="25" height="24" viewBox="0 0 25 24" fill="none" xmlns="http://www.w3.org/2000/svg">
<g clip-path="url(#clip0_1114_3216)">
<path d="M20.5 18V9.5C20.5 9.34475 20.4639 9.19164 20.3944 9.05279C20.325 8.91393 20.2242 8.79315 20.1 8.7L13.1 3.45C12.9269 3.32018 12.7164 3.25 12.5 3.25C12.2836 3.25 12.0731 3.32018 11.9 3.45L4.9 8.7C4.7758 8.79315 4.675 8.91393 4.60557 9.05279C4.53614 9.19164 4.5 9.34475 4.5 9.5V18C4.5 18.2652 4.60536 18.5196 4.79289 18.7071C4.98043 18.8946 5.23478 19 5.5 19H9.5C9.76522 19 10.0196 18.8946 10.2071 18.7071C10.3946 18.5196 10.5 18.2652 10.5 18V15C10.5 14.7348 10.6054 14.4804 10.7929 14.2929C10.9804 14.1054 11.2348 14 11.5 14H13.5C13.7652 14 14.0196 14.1054 14.2071 14.2929C14.3946 14.4804 14.5 14.7348 14.5 15V18C14.5 18.2652 14.6054 18.5196 14.7929 18.7071C14.9804 18.8946 15.2348 19 15.5 19H19.5C19.7652 19 20.0196 18.8946 20.2071 18.7071C20.3946 18.5196 20.5 18.2652 20.5 18Z" fill="#FEED8A" stroke="#111111" stroke-width="1.5" stroke-linecap="round" stroke-linejoin="round"/>
</g>
<defs>
<clipPath id="clip0_1114_3216">
<rect width="24" height="24" fill="white" transform="translate(0.5)"/>
</clipPath>
</defs>
</svg>
