<svg width="20" height="20" viewBox="0 0 20 20" fill="none" xmlns="http://www.w3.org/2000/svg">
<path d="M9.99992 2.8667C9.34603 2.8667 8.81104 3.4017 8.81104 4.05558C8.81104 4.70947 9.34603 5.24447 9.99992 5.24447C10.6538 5.24447 11.1888 4.70947 11.1888 4.05558C11.1888 3.4017 10.6538 2.8667 9.99992 2.8667ZM9.99992 14.7555C9.34603 14.7555 8.81104 15.2905 8.81104 15.9444C8.81104 16.5983 9.34603 17.1333 9.99992 17.1333C10.6538 17.1333 11.1888 16.5983 11.1888 15.9444C11.1888 15.2905 10.6538 14.7555 9.99992 14.7555ZM9.99992 8.81112C9.34603 8.81112 8.81104 9.34611 8.81104 10C8.81104 10.6539 9.34603 11.1889 9.99992 11.1889C10.6538 11.1889 11.1888 10.6539 11.1888 10C11.1888 9.34611 10.6538 8.81112 9.99992 8.81112Z" fill="#A8A8A8"/>
</svg>
