<svg width="20" height="20" viewBox="0 0 20 20" fill="none" xmlns="http://www.w3.org/2000/svg">
<path d="M12.5001 11.6668C14.7251 11.6668 19.1668 12.7752 19.1668 15.0002V16.6668H5.83346V15.0002C5.83346 12.7752 10.2751 11.6668 12.5001 11.6668ZM12.5001 10.0002C11.6161 10.0002 10.7682 9.64897 10.1431 9.02385C9.51799 8.39873 9.1668 7.55088 9.1668 6.66683C9.1668 5.78277 9.51799 4.93493 10.1431 4.30981C10.7682 3.68469 11.6161 3.3335 12.5001 3.3335C13.3842 3.3335 14.232 3.68469 14.8572 4.30981C15.4823 4.93493 15.8335 5.78277 15.8335 6.66683C15.8335 7.55088 15.4823 8.39873 14.8572 9.02385C14.232 9.64897 13.3842 10.0002 12.5001 10.0002ZM4.1668 7.99183L5.93346 6.21683L7.1168 7.40016L5.3418 9.16683L7.1168 10.9335L5.93346 12.1168L4.1668 10.3418L2.40013 12.1168L1.2168 10.9335L2.9918 9.16683L1.2168 7.40016L2.40013 6.21683L4.1668 7.99183Z" fill="#515151"/>
</svg>
