<svg width="18" height="19" viewBox="0 0 18 19" fill="none" xmlns="http://www.w3.org/2000/svg">
<path fill-rule="evenodd" clip-rule="evenodd" d="M8.4465 17.1005C8.4465 17.1005 3 12.5135 3 8C3 6.4087 3.63214 4.88258 4.75736 3.75736C5.88258 2.63214 7.4087 2 9 2C10.5913 2 12.1174 2.63214 13.2426 3.75736C14.3679 4.88258 15 6.4087 15 8C15 12.5135 9.5535 17.1005 9.5535 17.1005C9.2505 17.3795 8.75175 17.3765 8.4465 17.1005ZM9 10.625C9.34472 10.625 9.68606 10.5571 10.0045 10.4252C10.323 10.2933 10.6124 10.0999 10.8562 9.85616C11.0999 9.6124 11.2933 9.32302 11.4252 9.00454C11.5571 8.68606 11.625 8.34472 11.625 8C11.625 7.65528 11.5571 7.31394 11.4252 6.99546C11.2933 6.67698 11.0999 6.3876 10.8562 6.14384C10.6124 5.90009 10.323 5.70673 10.0045 5.57482C9.68606 5.4429 9.34472 5.375 9 5.375C8.30381 5.375 7.63613 5.65156 7.14384 6.14384C6.65156 6.63613 6.375 7.30381 6.375 8C6.375 8.69619 6.65156 9.36387 7.14384 9.85616C7.63613 10.3484 8.30381 10.625 9 10.625Z" fill="#A8A8A8"/>
</svg>
