<svg width="20" height="21" viewBox="0 0 20 21" fill="none" xmlns="http://www.w3.org/2000/svg">
<rect x="5.60498" y="14.2861" width="4.79535" height="7.8686" rx="0.585762" transform="rotate(-180 5.60498 14.2861)" fill="#FFA300"/>
<rect x="4.36816" y="18.8213" width="2.32109" height="12.4035" rx="0.585762" transform="rotate(-180 4.36816 18.8213)" fill="#FFA300"/>
<path d="M5.97473 6.1875L16.0239 2.20066C16.4085 2.0481 16.8257 2.33144 16.8257 2.74514L16.8257 17.9441C16.8257 18.3617 16.4013 18.6452 16.0156 18.4852L5.96636 14.3179C5.74759 14.2272 5.60498 14.0137 5.60498 13.7769L5.60498 6.73197C5.60498 6.49185 5.75153 6.27605 5.97473 6.1875Z" fill="#FFC33A"/>
<path d="M19.1899 10.2933C19.1899 7.95267 17.6139 6.96202 16.8259 6.75928L16.8259 13.9447C17.6139 13.7028 19.1899 12.6339 19.1899 10.2933Z" fill="#FF9C00"/>
</svg>
