<svg width="20" height="21" viewBox="0 0 20 21" fill="none" xmlns="http://www.w3.org/2000/svg">
<path d="M7.29412 4.5791H5.64706C5.21023 4.5791 4.7913 4.74545 4.48241 5.04156C4.17353 5.33767 4 5.73929 4 6.15805V15.6317C4 16.0505 4.17353 16.4521 4.48241 16.7482C4.7913 17.0443 5.21023 17.2107 5.64706 17.2107H9.35294M15.5294 9.31594V6.15805C15.5294 5.73929 15.3559 5.33767 15.047 5.04156C14.7381 4.74545 14.3192 4.5791 13.8824 4.5791H12.2353" stroke="#515151" stroke-width="1.5" stroke-linecap="round" stroke-linejoin="round"/>
<path d="M16.5177 16.5789L18.0001 18M7.29419 4.57895C7.29419 4.16018 7.46772 3.75857 7.7766 3.46246C8.08549 3.16635 8.50442 3 8.94125 3H10.5883C11.0251 3 11.4441 3.16635 11.753 3.46246C12.0618 3.75857 12.2354 4.16018 12.2354 4.57895C12.2354 4.99771 12.0618 5.39932 11.753 5.69543C11.4441 5.99154 11.0251 6.15789 10.5883 6.15789H8.94125C8.50442 6.15789 8.08549 5.99154 7.7766 5.69543C7.46772 5.39932 7.29419 4.99771 7.29419 4.57895ZM12.2354 14.8421C12.2354 15.4703 12.4957 16.0727 12.959 16.5168C13.4223 16.961 14.0507 17.2105 14.706 17.2105C15.3612 17.2105 15.9896 16.961 16.4529 16.5168C16.9162 16.0727 17.1765 15.4703 17.1765 14.8421C17.1765 14.214 16.9162 13.6115 16.4529 13.1674C15.9896 12.7232 15.3612 12.4737 14.706 12.4737C14.0507 12.4737 13.4223 12.7232 12.959 13.1674C12.4957 13.6115 12.2354 14.214 12.2354 14.8421Z" stroke="#515151" stroke-width="1.5" stroke-linecap="round" stroke-linejoin="round"/>
</svg>
