<svg width="20" height="20" viewBox="0 0 20 20" fill="none" xmlns="http://www.w3.org/2000/svg">
<path d="M17.9168 10.0002C17.9168 11.5659 17.4525 13.0965 16.5826 14.3984C15.7127 15.7003 14.4763 16.715 13.0297 17.3142C11.5832 17.9134 9.99138 18.0702 8.4557 17.7647C6.92002 17.4592 5.5094 16.7053 4.40224 15.5981C3.29507 14.4909 2.54108 13.0803 2.23562 11.5446C1.93015 10.0089 2.08693 8.41717 2.68612 6.97059C3.28531 5.524 4.30001 4.28759 5.6019 3.4177C6.90379 2.5478 8.4344 2.0835 10.0002 2.0835C11.541 2.08299 13.0485 2.53215 14.3378 3.3759C15.6271 4.21964 16.6422 5.42129 17.2585 6.8335M17.9168 4.5835L17.521 7.22933L15.0002 6.66683" stroke="#515151" stroke-width="1.5" stroke-linecap="round" stroke-linejoin="round"/>
<path d="M8.3335 9.16667V7.91667C8.3335 7.47464 8.50909 7.05072 8.82165 6.73816C9.13421 6.4256 9.55814 6.25 10.0002 6.25C10.4422 6.25 10.8661 6.4256 11.1787 6.73816C11.4912 7.05072 11.6668 7.47464 11.6668 7.91667V9.16667M9.37516 13.75H10.6252C11.6027 13.75 12.0918 13.75 12.4277 13.4917C12.5144 13.4251 12.592 13.3475 12.6585 13.2608C12.9168 12.9242 12.9168 12.4358 12.9168 11.4583C12.9168 10.4808 12.9168 9.99167 12.6585 9.65583C12.592 9.56913 12.5144 9.49152 12.4277 9.425C12.091 9.16667 11.6027 9.16667 10.6252 9.16667H9.37516C8.39766 9.16667 7.9085 9.16667 7.57266 9.425C7.48596 9.49152 7.40835 9.56913 7.34183 9.65583C7.0835 9.9925 7.0835 10.4808 7.0835 11.4583C7.0835 12.4358 7.0835 12.925 7.34183 13.2608C7.40835 13.3475 7.48596 13.4251 7.57266 13.4917C7.90933 13.75 8.39766 13.75 9.37516 13.75Z" stroke="#515151" stroke-width="1.5" stroke-linecap="round" stroke-linejoin="round"/>
</svg>
