<svg width="24" height="24" viewBox="0 0 24 24" fill="none" xmlns="http://www.w3.org/2000/svg">
<path d="M20 2.75C20.3493 2.75 20.6302 2.86557 20.8828 3.11816C21.1354 3.37073 21.2504 3.651 21.25 3.99902V16C21.25 16.3497 21.1339 16.6303 20.8818 16.8828C20.6305 17.1346 20.3508 17.2504 20.001 17.25H5.68945L3.16992 19.7695C3.09612 19.8433 3.05475 19.8529 3.04688 19.8545C3.0409 19.8557 3.00147 19.8635 2.90723 19.8232C2.81281 19.7829 2.78686 19.7474 2.78027 19.7373C2.77289 19.7259 2.74985 19.6847 2.75 19.5762V4C2.75 3.65073 2.86599 3.3709 3.11816 3.11914C3.33945 2.89823 3.58196 2.78179 3.87305 2.75586L4.00098 2.75H20ZM12.0752 4.75C11.7865 4.75 11.5065 4.80958 11.2402 4.91895C11.0296 5.00548 10.8369 5.123 10.6631 5.2666L10.4971 5.41699L5.77246 10.0918L5.76953 10.0947C5.60112 10.2632 5.46744 10.4612 5.37793 10.6855C5.29347 10.8975 5.25005 11.1204 5.25 11.3496V13C5.25 13.4726 5.4185 13.9038 5.75781 14.2432C6.09681 14.5822 6.52764 14.7497 7 14.749V14.75H8.65039C8.87973 14.75 9.10307 14.7067 9.31543 14.6221C9.54034 14.5323 9.73884 14.398 9.90723 14.2285L14.5811 9.52832C14.8013 9.30776 14.972 9.05102 15.0859 8.76074C15.1914 8.49195 15.2511 8.21061 15.25 7.92188C15.2489 7.63606 15.1899 7.35935 15.0791 7.09668C14.9709 6.84026 14.8197 6.60764 14.6328 6.39941L14.623 6.3877L14.6123 6.37695L13.6875 5.42676L13.6807 5.41992L13.5127 5.2666C13.3383 5.12217 13.1445 5.00428 12.9326 4.91797C12.6594 4.80676 12.3721 4.75098 12.0771 4.75H12.0752ZM9.38965 14.75H17C17.4726 14.75 17.9038 14.5815 18.2432 14.2422C18.5826 13.9028 18.7511 13.4711 18.75 12.998C18.7488 12.5271 18.5806 12.0974 18.2432 11.7588C17.9042 11.4186 17.4726 11.25 17 11.25H12.8896L9.38965 14.75Z" fill="#FEED8A" stroke="#111111" stroke-width="1.5"/>
</svg>
