<svg width="24" height="24" viewBox="0 0 24 24" fill="none" xmlns="http://www.w3.org/2000/svg">
<path d="M20 2.5C20.4162 2.5 20.7605 2.64234 21.0596 2.94141C21.3585 3.24037 21.5004 3.58404 21.5 3.99902V16C21.5 16.4163 21.3579 16.7606 21.0596 17.0596C20.7616 17.358 20.4176 17.5004 20.001 17.5H5.79297L3.34668 19.9463C3.24375 20.0492 3.15944 20.0869 3.09473 20.0996C3.03034 20.1122 2.93957 20.1096 2.80859 20.0537C2.67754 19.9977 2.60968 19.9329 2.57129 19.874C2.53267 19.8147 2.49984 19.7242 2.5 19.5762V4C2.5 3.58381 2.64261 3.2397 2.94141 2.94141C3.20313 2.68025 3.49936 2.53859 3.84766 2.50684L4.00098 2.5H20ZM12.0752 5C11.8216 5 11.5736 5.05232 11.335 5.15039C11.0871 5.25224 10.8661 5.40255 10.6729 5.59473L5.94824 10.2695L5.94629 10.2715C5.80076 10.417 5.68668 10.5861 5.61035 10.7773C5.5373 10.9605 5.50005 11.1525 5.5 11.3496V13C5.5 13.4095 5.64436 13.7762 5.93457 14.0664C6.22457 14.3564 6.59088 14.4997 7 14.499V14.5H8.65039C8.84782 14.5 9.04021 14.4628 9.22363 14.3896C9.41513 14.3132 9.58425 14.1989 9.72949 14.0527L14.4043 9.35254L14.4033 9.35156C14.6001 9.15458 14.7525 8.92736 14.8535 8.66992C14.9489 8.42671 15.0009 8.17626 15 7.92285C14.999 7.67136 14.9472 7.42695 14.8486 7.19336C14.7519 6.96415 14.6166 6.7551 14.4473 6.56641L14.4336 6.55078L13.5078 5.60156L13.5039 5.59668L13.3525 5.45898C13.1969 5.33021 13.0256 5.22649 12.8389 5.15039C12.5957 5.05135 12.3404 5.00094 12.0771 5H12.0752ZM9.99316 14.5H17C17.4095 14.5 17.7762 14.3556 18.0664 14.0654C18.3566 13.7752 18.5009 13.4085 18.5 12.999C18.499 12.5909 18.355 12.2253 18.0664 11.9355C17.7766 11.6448 17.4095 11.5 17 11.5H12.9932L9.99316 14.5ZM12.2969 7.94531L12.0449 8.19727L11.8105 7.96973L12.0693 7.71094L12.2969 7.94531Z" fill="#E6E6E6" stroke="#A8A8A8"/>
</svg>
