<svg width="20" height="20" viewBox="0 0 20 20" fill="none" xmlns="http://www.w3.org/2000/svg">
<path d="M8.51111 3.17067C8.88978 1.60978 11.1102 1.60978 11.4889 3.17067C11.5457 3.40515 11.6571 3.62291 11.814 3.80622C11.9708 3.98953 12.1688 4.1332 12.3917 4.22555C12.6146 4.3179 12.8561 4.35631 13.0967 4.33766C13.3372 4.31901 13.57 4.24382 13.776 4.11822C15.1476 3.28267 16.7182 4.85244 15.8827 6.22489C15.7572 6.4308 15.6822 6.66341 15.6636 6.9038C15.645 7.14419 15.6833 7.38557 15.7756 7.60834C15.8678 7.8311 16.0113 8.02896 16.1944 8.18582C16.3775 8.34269 16.5951 8.45414 16.8293 8.51111C18.3902 8.88978 18.3902 11.1102 16.8293 11.4889C16.5948 11.5457 16.3771 11.6571 16.1938 11.814C16.0105 11.9708 15.8668 12.1688 15.7744 12.3917C15.6821 12.6146 15.6437 12.8561 15.6623 13.0967C15.681 13.3372 15.7562 13.57 15.8818 13.776C16.7173 15.1476 15.1476 16.7182 13.7751 15.8827C13.5692 15.7572 13.3366 15.6822 13.0962 15.6636C12.8558 15.645 12.6144 15.6833 12.3917 15.7756C12.1689 15.8678 11.971 16.0113 11.8142 16.1944C11.6573 16.3775 11.5459 16.5951 11.4889 16.8293C11.1102 18.3902 8.88978 18.3902 8.51111 16.8293C8.4543 16.5948 8.34291 16.3771 8.18604 16.1938C8.02916 16.0105 7.83121 15.8668 7.60831 15.7744C7.38541 15.6821 7.14385 15.6437 6.9033 15.6623C6.66275 15.681 6.43 15.7562 6.224 15.8818C4.85244 16.7173 3.28178 15.1476 4.11733 13.7751C4.24276 13.5692 4.31782 13.3366 4.33643 13.0962C4.35504 12.8558 4.31666 12.6144 4.22442 12.3917C4.13218 12.1689 3.98868 11.971 3.80558 11.8142C3.62248 11.6573 3.40495 11.5459 3.17067 11.4889C1.60978 11.1102 1.60978 8.88978 3.17067 8.51111C3.40515 8.4543 3.62291 8.34291 3.80622 8.18604C3.98953 8.02916 4.1332 7.83121 4.22555 7.60831C4.3179 7.38541 4.35631 7.14385 4.33766 6.9033C4.31901 6.66275 4.24382 6.43 4.11822 6.224C3.28267 4.85244 4.85244 3.28178 6.22489 4.11733C7.11378 4.65778 8.26578 4.17956 8.51111 3.17067Z" stroke="#515151" stroke-width="1.5" stroke-linecap="round" stroke-linejoin="round"/>
<path d="M7.33325 9.99992C7.33325 10.7072 7.6142 11.3854 8.1143 11.8855C8.6144 12.3856 9.29267 12.6666 9.99992 12.6666C10.7072 12.6666 11.3854 12.3856 11.8855 11.8855C12.3856 11.3854 12.6666 10.7072 12.6666 9.99992C12.6666 9.29267 12.3856 8.6144 11.8855 8.1143C11.3854 7.6142 10.7072 7.33325 9.99992 7.33325C9.29267 7.33325 8.6144 7.6142 8.1143 8.1143C7.6142 8.6144 7.33325 9.29267 7.33325 9.99992Z" stroke="#515151" stroke-width="1.5" stroke-linecap="round" stroke-linejoin="round"/>
</svg>
