<svg width="41" height="38" viewBox="0 0 41 38" fill="none" xmlns="http://www.w3.org/2000/svg">
<path d="M13.4289 11.1766L1.86825 12.8078L1.66349 12.8484C1.35353 12.9285 1.07095 13.0872 0.844628 13.3083C0.618303 13.5294 0.456333 13.805 0.375261 14.107C0.294189 14.4089 0.296919 14.7264 0.383172 15.0271C0.469424 15.3277 0.636109 15.6006 0.866205 15.818L9.24135 23.7517L7.26625 34.9584L7.2427 35.1524C7.22372 35.4644 7.29029 35.7756 7.43559 36.0544C7.58088 36.3331 7.79968 36.5692 8.06958 36.7386C8.33949 36.908 8.65079 37.0045 8.97163 37.0183C9.29246 37.0321 9.6113 36.9626 9.89549 36.817L20.2349 31.5267L30.5507 36.817L30.7319 36.8982C31.031 37.0128 31.356 37.048 31.6737 37C31.9913 36.9521 32.2902 36.8227 32.5395 36.6253C32.7889 36.4279 32.9798 36.1694 33.0926 35.8765C33.2055 35.5836 33.2362 35.2667 33.1817 34.9584L31.2048 23.7517L39.5836 15.8162L39.7249 15.6663C39.9268 15.4243 40.0592 15.1346 40.1086 14.8266C40.1579 14.5186 40.1225 14.2034 40.0059 13.913C39.8894 13.6227 39.6958 13.3676 39.4449 13.1737C39.1941 12.9799 38.8949 12.8543 38.5779 12.8096L27.0172 11.1766L21.8494 0.983946C21.6998 0.68863 21.4683 0.439951 21.1811 0.266057C20.8938 0.0921633 20.5623 0 20.224 0C19.8857 0 19.5542 0.0921633 19.2669 0.266057C18.9796 0.439951 18.7481 0.68863 18.5986 0.983946L13.4289 11.1766Z" fill="#FFE600"/>
</svg>
