<svg width="20" height="21" viewBox="0 0 20 21" fill="none" xmlns="http://www.w3.org/2000/svg">
<path d="M9.16184 9.11708C9.40934 9.24645 9.69622 9.31958 10.0056 9.31958C10.315 9.31958 10.6018 9.24645 10.8493 9.11708C10.9281 9.07208 11.0181 9.16771 10.9675 9.24645C10.765 9.56146 10.4106 9.76958 10.0056 9.76958C9.60059 9.76958 9.24622 9.56146 9.04372 9.24645C8.99309 9.16771 9.07747 9.07208 9.16184 9.11708ZM7.87372 7.3902C7.95809 7.04708 8.27309 6.78833 8.64434 6.78833C9.03247 6.78833 9.35309 7.06395 9.42622 7.42958C9.44309 7.50833 9.38122 7.58145 9.29684 7.58145H9.25297C9.26321 7.53909 9.2685 7.49567 9.26872 7.45208C9.26872 7.16521 9.04372 6.9402 8.76247 6.9402C8.68426 6.9404 8.60713 6.95846 8.53697 6.993C8.4668 7.02754 8.40545 7.07765 8.35759 7.13951C8.30973 7.20136 8.27664 7.27333 8.26082 7.34992C8.24501 7.42651 8.2469 7.5057 8.26634 7.58145H8.02559C7.92434 7.58145 7.85122 7.49145 7.87372 7.3902Z" fill="#A8A8A8"/>
<path d="M9.04945 7.44646C9.04945 7.28333 8.92007 7.15395 8.75695 7.15395C8.71736 7.15325 8.67806 7.16092 8.64164 7.17645C8.65248 7.18452 8.66137 7.19492 8.66765 7.20688C8.67392 7.21885 8.67743 7.23207 8.67789 7.24558C8.67836 7.25908 8.67578 7.27252 8.67034 7.28489C8.66491 7.29726 8.65676 7.30825 8.64649 7.31704C8.63623 7.32583 8.62412 7.3322 8.61106 7.33567C8.598 7.33914 8.58433 7.33962 8.57106 7.33709C8.55779 7.33455 8.54525 7.32906 8.53439 7.32102C8.52353 7.31298 8.51462 7.3026 8.50832 7.29064C8.48141 7.33402 8.46631 7.38368 8.46453 7.4347C8.46276 7.48572 8.47436 7.53631 8.4982 7.58145H9.0157C9.0382 7.54208 9.04945 7.49708 9.04945 7.44646ZM12.1432 7.3902C12.0588 7.04708 11.7438 6.78833 11.3726 6.78833C10.9844 6.78833 10.6638 7.06395 10.5907 7.42958C10.5738 7.50833 10.6357 7.58145 10.7201 7.58145H10.7639C10.7537 7.53909 10.7484 7.49567 10.7482 7.45208C10.7426 7.16521 10.9732 6.9402 11.2544 6.9402C11.3327 6.94032 11.4099 6.95831 11.4801 6.99282C11.5504 7.02732 11.6118 7.07742 11.6597 7.13928C11.7076 7.20115 11.7408 7.27315 11.7566 7.34978C11.7725 7.42642 11.7706 7.50566 11.7511 7.58145H11.9913C12.0926 7.58145 12.1657 7.49145 12.1432 7.3902Z" fill="#A8A8A8"/>
<path d="M11.1464 7.17421C11.202 7.15091 11.2634 7.14547 11.3221 7.15862C11.3809 7.17178 11.4341 7.20288 11.4744 7.24763C11.5147 7.29237 11.5401 7.34854 11.547 7.40836C11.554 7.46817 11.5421 7.52866 11.5132 7.58146H10.9957C10.9709 7.53449 10.9594 7.48166 10.9624 7.42865C10.9653 7.37563 10.9827 7.32442 11.0126 7.28052C11.0176 7.29379 11.0257 7.30568 11.0362 7.31523C11.0466 7.32478 11.0592 7.33172 11.0729 7.33547C11.0866 7.33923 11.101 7.33969 11.1149 7.33683C11.1288 7.33397 11.1418 7.32787 11.1529 7.31901C11.164 7.31016 11.1728 7.29882 11.1787 7.2859C11.1845 7.27298 11.1873 7.25886 11.1866 7.24469C11.186 7.23051 11.182 7.21669 11.1751 7.20434C11.1681 7.192 11.1583 7.18148 11.1464 7.17364" fill="#A8A8A8"/>
<path fill-rule="evenodd" clip-rule="evenodd" d="M15.625 18.9204H3.81812C3.66893 18.9204 3.52586 18.8612 3.42037 18.7557C3.31488 18.6502 3.25562 18.5071 3.25562 18.3579V16.3892C3.25637 16.1042 3.27474 15.8211 3.31074 15.5398H2.47937C2.28812 15.5398 2.13062 15.3823 2.13062 15.1911V4.08168C2.13062 3.89043 2.28812 3.73293 2.47937 3.73293H6.35443C6.47255 3.62043 6.60511 3.52668 6.75212 3.45168L7.00187 3.33018C7.12074 3.26606 7.22855 3.18675 7.3253 3.09225L7.8923 2.52637C8.13031 2.28724 8.43639 2.12749 8.76867 2.06899C9.10095 2.01048 9.44319 2.05609 9.74855 2.19956C9.92687 2.25468 10.1181 2.25187 10.2942 2.19112C10.6254 2.07424 10.983 2.05374 11.3254 2.13201C11.6679 2.21027 11.981 2.38408 12.2286 2.63325L12.7017 3.10575C12.7947 3.19725 12.8995 3.27225 13.0161 3.33075L13.2535 3.44662L13.2602 3.45C13.4084 3.52537 13.5419 3.61968 13.6607 3.73293H17.5206C17.7175 3.73293 17.8694 3.89043 17.8694 4.08168V15.1854C17.8709 15.2314 17.8631 15.2773 17.8465 15.3202C17.83 15.3631 17.8049 15.4023 17.7729 15.4354C17.7409 15.4684 17.7026 15.4947 17.6602 15.5127C17.6178 15.5306 17.5723 15.5398 17.5262 15.5398H16.7027C16.7372 15.8211 16.7539 16.1042 16.7528 16.3892V17.7954C16.7528 17.9434 16.7236 18.0899 16.6669 18.2266C16.6102 18.3633 16.5271 18.4874 16.4223 18.5919C16.3175 18.6964 16.1932 18.7792 16.0564 18.8356C15.9196 18.892 15.773 18.9208 15.625 18.9204ZM4.17362 12.9973C3.91335 13.4445 3.70535 13.9201 3.55374 14.4148H3.25562V4.85793H5.82905C5.82155 4.99181 5.82924 5.12531 5.85212 5.25843L6.09962 6.63037C5.97087 6.79238 5.87707 6.97928 5.8241 7.17932C5.77113 7.37936 5.76016 7.5882 5.79186 7.79269C5.82356 7.99717 5.89726 8.19288 6.00831 8.36749C6.11936 8.5421 6.26536 8.69183 6.43712 8.80725L6.5153 9.86756C6.5378 10.0909 6.58843 10.3108 6.66774 10.5212C5.63296 11.1127 4.77261 11.9668 4.17362 12.9973ZM14.1518 5.26575C14.1777 5.13 14.1869 4.99406 14.1794 4.85793H16.75V14.4148H16.4648C15.9825 12.8231 14.9257 11.4674 13.4999 10.6112C13.6003 10.3692 13.6642 10.1137 13.6894 9.85293L13.7789 8.64468C14.0448 8.38888 14.207 8.04393 14.2343 7.67595C14.2616 7.30797 14.1521 6.94287 13.9268 6.65062L14.1518 5.26575ZM14.0387 17.7954H15.625V16.3892C15.6296 15.3354 15.3363 14.3019 14.779 13.4075C14.2217 12.5132 13.423 11.7946 12.475 11.3346C12.3566 11.2764 12.2624 11.1784 12.2089 11.0578C12.161 11.0943 12.1117 11.1288 12.061 11.1613L12.6831 12.243C12.7337 12.3307 12.655 12.432 12.5369 12.432H11.9462C11.8112 12.432 11.7494 12.5659 11.8394 12.6401L11.9541 12.7324H12.9109C12.9717 12.7313 13.0322 12.7422 13.0887 12.7645C13.1453 12.7868 13.1969 12.8201 13.2406 12.8625C13.2842 12.9048 13.3191 12.9554 13.3431 13.0112C13.3671 13.0671 13.3799 13.1272 13.3806 13.188V14.2157C13.7564 14.3001 14.0387 14.6376 14.0387 15.0386V17.7954ZM10.765 11.4898C10.6882 11.6239 10.5774 11.7353 10.4438 11.8128C10.3102 11.8903 10.1584 11.9311 10.0039 11.9311C9.84944 11.9311 9.6977 11.8903 9.56406 11.8128C9.43042 11.7353 9.31961 11.6239 9.24287 11.4898H10.765ZM7.97105 11.1742C7.93748 11.1532 7.90447 11.1312 7.87205 11.1084L7.8563 11.1281C7.8029 11.1912 7.73625 11.2417 7.66112 11.2761C6.68316 11.7268 5.8546 12.4479 5.2733 13.3543C4.69201 14.2608 4.38225 15.3146 4.38062 16.3914V17.7954H5.96687V15.0392C5.96687 14.7917 6.08724 14.5791 6.23855 14.4356C6.3848 14.2972 6.58899 14.1949 6.80499 14.1954V13.7904C6.80499 13.2054 7.29212 12.7273 7.90074 12.7329H8.08468L8.19999 12.6407C8.28999 12.5664 8.22812 12.4326 8.09312 12.4326H7.50249C7.38437 12.4326 7.30562 12.3313 7.35624 12.2436L7.97105 11.1742ZM7.53793 8.44893L7.6358 9.77081C7.6463 9.87431 7.66787 9.97518 7.70049 10.0734C7.82889 10.3314 8.02702 10.5482 8.27241 10.6992C8.5178 10.8502 8.8006 10.9295 9.08874 10.9279H10.9225C11.7291 10.9279 12.3979 10.3288 12.4817 9.4755L12.5605 8.355C12.4611 8.4919 12.3307 8.60327 12.1799 8.67993C12.0291 8.7566 11.8623 8.79638 11.6931 8.796H11.2881C11.1467 8.7963 11.0065 8.76851 10.8759 8.71424C10.7452 8.65997 10.6267 8.58031 10.5271 8.47987C10.512 8.54723 10.4744 8.60745 10.4205 8.6506C10.3666 8.69375 10.2996 8.71725 10.2306 8.71725H9.79187C9.72029 8.71804 9.65074 8.69353 9.59548 8.64804C9.54021 8.60255 9.50279 8.53901 9.4898 8.46862C9.29462 8.66718 9.02293 8.79037 8.72312 8.79037H8.32374C8.17638 8.79067 8.03056 8.76049 7.89543 8.70173C7.76029 8.64297 7.63877 8.55691 7.53849 8.44893M10.0056 7.18218C10.0855 7.18218 10.1536 7.22718 10.189 7.29356C10.0861 7.17093 9.87568 7.18612 9.80312 7.33856C9.81419 7.29342 9.84025 7.25338 9.87703 7.22497C9.91381 7.19657 9.95915 7.18148 10.0056 7.18218ZM12.6876 6.56343H12.025C12.0614 6.5566 12.0961 6.54265 12.127 6.52238C12.158 6.50211 12.1847 6.47592 12.2056 6.44531C12.3124 6.31031 12.2843 6.11343 12.1493 6.00656C12.1324 5.98968 11.6599 5.62968 10.9737 5.71406C10.895 5.72855 10.8249 5.77241 10.7774 5.83674C10.7299 5.90107 10.7086 5.98106 10.7179 6.06048C10.7272 6.13991 10.7664 6.21282 10.8274 6.26443C10.8885 6.31605 10.9669 6.3425 11.0468 6.33843C11.3001 6.30589 11.5568 6.36516 11.7702 6.5055L11.7724 6.50718C11.8159 6.53531 11.8604 6.55406 11.9057 6.56343H10.7256C10.5569 6.56343 10.3994 6.64218 10.2925 6.77156C10.2581 6.81447 10.2144 6.84894 10.1647 6.87234C10.115 6.89574 10.0606 6.90745 10.0056 6.90656C9.95067 6.90745 9.89624 6.89574 9.84652 6.87234C9.79679 6.84894 9.75308 6.81447 9.71874 6.77156C9.61187 6.64218 9.45437 6.56343 9.28562 6.56343H8.10999C8.15578 6.55436 8.19958 6.53722 8.23937 6.51281C8.25062 6.50156 8.53749 6.29343 8.96499 6.34406C9.13937 6.36093 9.29124 6.23719 9.31374 6.06843C9.32178 5.98595 9.29756 5.90356 9.24618 5.83854C9.19479 5.77352 9.12022 5.73093 9.03812 5.71968C8.35749 5.64093 7.87936 5.99531 7.86249 6.01218C7.81522 6.04891 7.77954 6.09849 7.75975 6.15498C7.73995 6.21147 7.73688 6.27247 7.75089 6.33067C7.76491 6.38886 7.79542 6.44178 7.83876 6.48307C7.8821 6.52435 7.93643 6.55226 7.99524 6.56343H7.32811L7.3163 6.38625C7.31431 6.34686 7.32116 6.30752 7.33634 6.27112C7.35152 6.23471 7.37466 6.20217 7.40405 6.17587L7.5098 6.08137C7.71849 5.89575 7.82874 5.6325 7.82874 5.36531V4.87031C7.82874 4.86422 7.83071 4.8583 7.83437 4.85343L7.83605 4.85175C7.92268 4.84612 8.0273 4.82981 8.13024 4.81237L8.29449 4.78425C8.39424 4.76662 8.50562 4.74787 8.62862 4.728C9.01112 4.66612 9.48699 4.60593 10.0056 4.60593C11.0575 4.60593 11.8163 4.75893 12.1656 4.845C12.1701 4.84639 12.174 4.84914 12.1769 4.85287C12.1805 4.85774 12.1825 4.86366 12.1825 4.86975V5.36475C12.1825 5.63812 12.3017 5.89743 12.4981 6.07856L12.5009 6.08025L12.6122 6.18093C12.6398 6.20491 12.662 6.23445 12.6773 6.26761C12.6926 6.30076 12.7007 6.33679 12.7011 6.37331L12.6876 6.56343ZM13.4762 17.7954V15.0381C13.4762 14.8845 13.3491 14.7568 13.195 14.7568V15.4037H13.1843C13.1814 15.4763 13.1505 15.545 13.0981 15.5953C13.0456 15.6457 12.9757 15.6737 12.9031 15.6737H11.4681C11.4496 15.6774 11.4308 15.6793 11.4119 15.6793C11.3236 15.6793 11.2617 15.7485 11.26 15.816V15.8194C11.2596 15.8436 11.2654 15.8675 11.2769 15.8888C11.2885 15.91 11.3053 15.928 11.3258 15.9409C11.3645 15.9667 11.3962 16.0018 11.4181 16.0429C11.4399 16.084 11.4512 16.1299 11.4509 16.1765C11.4506 16.223 11.4388 16.2688 11.4165 16.3096C11.3941 16.3505 11.362 16.3852 11.323 16.4106C11.3043 16.4229 11.2888 16.4396 11.2778 16.4592C11.2669 16.4787 11.2608 16.5006 11.26 16.5231C11.26 16.5737 11.2836 16.6119 11.3179 16.6333C11.3582 16.6582 11.3915 16.6929 11.4148 16.7341C11.4381 16.7754 11.4506 16.8218 11.4512 16.8691C11.4517 16.9165 11.4403 16.9632 11.418 17.005C11.3957 17.0467 11.3632 17.0822 11.3236 17.1081C11.3047 17.1204 11.2891 17.137 11.2781 17.1566C11.267 17.1762 11.2608 17.1981 11.26 17.2206C11.26 17.2712 11.2836 17.3094 11.3179 17.3308C11.3569 17.3549 11.3894 17.3882 11.4126 17.4278C11.4358 17.4673 11.449 17.512 11.451 17.5578C11.453 17.6036 11.4437 17.6492 11.4241 17.6906C11.4044 17.732 11.3749 17.768 11.3382 17.7954H13.4762ZM6.81062 14.7579L6.80499 14.7574C6.73669 14.7632 6.67288 14.7938 6.62555 14.8434C6.59736 14.8679 6.57433 14.8978 6.55782 14.9313C6.5413 14.9649 6.53163 15.0013 6.52937 15.0386V17.7954H8.66743C8.63079 17.768 8.60141 17.732 8.58182 17.6907C8.56224 17.6493 8.55304 17.6038 8.55504 17.5581C8.55704 17.5123 8.57016 17.4678 8.59327 17.4283C8.61639 17.3888 8.64879 17.3555 8.68768 17.3314C8.70613 17.3198 8.72121 17.3036 8.73138 17.2843C8.74156 17.2651 8.74647 17.2434 8.74562 17.2217C8.74485 17.1993 8.73873 17.1774 8.72777 17.1578C8.71681 17.1382 8.70133 17.1216 8.68262 17.1092C8.6428 17.0834 8.61016 17.048 8.58772 17.0062C8.56528 16.9644 8.55378 16.9176 8.55429 16.8701C8.55479 16.8227 8.56729 16.7762 8.59061 16.7349C8.61393 16.6935 8.64732 16.6588 8.68768 16.6339C8.70613 16.6223 8.72121 16.6061 8.73138 16.5868C8.74156 16.5676 8.74647 16.5459 8.74562 16.5242C8.74485 16.5018 8.73873 16.4799 8.72777 16.4603C8.71681 16.4407 8.70133 16.4241 8.68262 16.4117C8.64347 16.3863 8.61124 16.3516 8.58884 16.3107C8.56644 16.2698 8.55456 16.224 8.55429 16.1773C8.55401 16.1307 8.56533 16.0847 8.58724 16.0435C8.60915 16.0023 8.64096 15.9673 8.6798 15.9414C8.7003 15.9286 8.71713 15.9106 8.72866 15.8893C8.74019 15.868 8.74603 15.8441 8.74562 15.8199V15.8166C8.74393 15.7491 8.68205 15.6804 8.59374 15.6804C8.57485 15.6805 8.556 15.6786 8.53749 15.6748H7.09524C7.02256 15.6749 6.95267 15.6468 6.90024 15.5964C6.84781 15.5461 6.8169 15.4774 6.81399 15.4048H6.81062V14.7579ZM11.1925 12.7329H8.84687V11.9117C8.98321 12.0967 9.16192 12.2462 9.36801 12.3479C9.5741 12.4495 9.80156 12.5003 10.0313 12.4959C10.2611 12.4915 10.4864 12.432 10.6885 12.3226C10.8905 12.2131 11.0633 12.0568 11.1925 11.8667V12.7329ZM12.8041 13.2167H7.81187C7.68208 13.2167 7.5576 13.2682 7.46583 13.36C7.37405 13.4518 7.32249 13.5763 7.32249 13.7061C7.32249 13.8358 7.37405 13.9603 7.46583 14.0521C7.5576 14.1439 7.68208 14.1954 7.81187 14.1954H12.8041V13.2167ZM8.68374 8.59406C9.19561 8.59406 9.61187 8.17781 9.61187 7.66593H9.60624V7.25531C9.60624 6.97968 9.38687 6.76031 9.11124 6.76031H7.94124C7.66562 6.76031 7.44624 6.97968 7.44624 7.25531V7.66593C7.44624 8.17781 7.86249 8.59406 8.37437 8.59406H8.68374ZM11.6537 8.59406C12.1656 8.59406 12.5819 8.17781 12.5819 7.66593V7.25531C12.5819 6.97968 12.3625 6.76031 12.0869 6.76031H10.9112C10.6356 6.76031 10.4162 6.97968 10.4162 7.25531V7.66593C10.4162 8.17781 10.8325 8.59406 11.3444 8.59406H11.6537Z" fill="#A8A8A8"/>
</svg>
